<?xml version="1.0" encoding="utf-8"?>
<!-- Generator: Adobe Illustrator 28.1.0, SVG Export Plug-In . SVG Version: 6.00 Build 0)  -->
<svg version="1.1" id="Layer_1" xmlns="http://www.w3.org/2000/svg" xmlns:xlink="http://www.w3.org/1999/xlink" x="0px" y="0px"
	 viewBox="0 0 614.97 497.29" style="enable-background:new 0 0 614.97 497.29;" xml:space="preserve">
<style type="text/css">
	.st0{fill:none;}
	.st1{fill:#2B2B2B;}
</style>
<g>
	<g>
		<path class="st0" d="M480.39,166.71c0.02,0.52,0.04,1.24-0.1,2.06c-0.47,2.78-0.02,5.63,0.8,9.06c0.66,2.76,1.55,5.44,2.5,8.29
			c0.22,0.68,0.45,1.37,0.68,2.05c3.06,9.4,4.41,18.86,4,28.12c-0.22,5.04-0.94,10-1.63,14.8c-0.01,0.05-0.02,0.11-0.02,0.16
			c0.23,0.22,0.46,0.44,0.7,0.65c5.14,4.71,10.86,7.68,18.26,7.29c8.34-0.44,16.71-0.05,25.07-0.11c1.41-0.01,3.42,0.8,4.11-0.64
			c0.56-1.17-1.13-2.36-1.92-3.46c-7.71-10.73-13.97-22.2-18.08-34.82c-3.05-9.38-4.3-19.02-4.21-28.81
			c0.07-8.51,1.8-16.79,4.32-24.91c0.34-1.11,0.93-2.18,0.88-3.51c-0.86-0.05-1.43,0.33-2.03,0.64
			c-10.4,5.45-20.79,10.92-31.2,16.34c-1.24,0.65-2.18,1.51-2.93,2.61c0.52,1.14,0.79,2.44,0.81,3.85
			C480.39,166.5,480.39,166.6,480.39,166.71z"/>
		<path class="st0" d="M184.39,158.91c1.1,0.39,2.2,0.75,3.37,1.13c0.59,0.19,1.18,0.38,1.76,0.58c0.21,0.07,0.42,0.15,0.63,0.22
			c0.19,0.07,0.37,0.13,0.48,0.17c3.09,0.89,6.96,3.22,7.88,9.23c0.58,3.81,1.09,7.32,1.54,10.64c0,0,0,0,0,0
			c0.15,0.02,0.3,0.04,0.45,0.05c0.74-3.99,1.69-8.11,2.85-12.5c0.61-2.3,2.05-4.06,4.18-5.11c1.08-0.53,2.18-0.99,3.25-1.35
			c3.07-1.04,6.18-2.26,9.19-3.44c0.91-0.36,1.83-0.71,2.74-1.07c1.22-0.47,2.44-1.11,3.68-1.78c0.03-0.02,0.05-0.03,0.08-0.04
			c0,0,0,0,0,0c-0.03-0.39-0.03-0.79-0.01-1.19c0.05-0.93-0.27-1.87-1.13-3.24c-2.87-4.58-3.07-5.7-1.91-10.96l0.02-0.09
			c0.23-1.03,0.33-2.17,0.44-3.38c0.07-0.79,0.15-1.62,0.26-2.47c0.66-4.95,2.91-8.71,6.57-11.08c0,0,0,0,0,0
			c-4.25-5.75-8.49-11.5-12.73-17.24c-0.34-0.46-0.59-1.07-1.7-1.09c-3.07,14.16-9.83,26.41-20.46,36.48
			c-6.23,5.9-13.13,10.54-20.63,14.05c2.26,1.05,4.65,1.9,7.17,2.78C183.03,158.43,183.71,158.67,184.39,158.91z"/>
		<path class="st0" d="M253.49,133.56c0.09,0.63,0.18,1.26,0.26,1.89c0.23,1.71,0.46,3.34,0.81,4.9c0.63,0.42,1.34,0.72,2.14,0.91
			c4.21,1,8.41,1.21,12.72,0.55c12.22-1.87,22.22-7.56,30.47-16.36c0.69-1.05,1.51-1.99,2.44-2.82c1.34-1.91,1.92-4.06,1.89-6.55
			c-0.1-10.75,0.01-21.5-0.01-32.25c0-1.67,0.28-3.37-0.1-5.09c-1.04-0.27-1.48,0.5-2.04,1c-1.85,1.66-3.64,3.39-5.55,4.99
			c-5.04,4.22-10.26,8.17-16.27,11.01c-16.23,7.66-33.23,8.98-50.74,6.38c-1.01-0.15-2.05-0.61-3.12-0.08
			c0.13,0.89,0.59,1.43,0.99,1.98c4.12,5.6,8.23,11.2,12.35,16.8c0,0,0,0,0,0.01c1.99,0.18,4,0.81,6.01,1.89
			C250.12,125.08,252.8,128.83,253.49,133.56z"/>
		<path class="st0" d="M382.2,202.57h-0.03c-0.11-2.57-0.21-5.15-0.35-7.73c-0.2-3.61-0.37-7.23-0.73-10.83
			c-0.28-2.79-0.49-5.6-0.72-8.4c-1.07-0.89-2.09-1.83-3.06-2.81c0.26,1.1,0.12,2.27-0.04,3.46c-0.49,3.68-0.94,7.38-1.31,11.08
			c-0.61,6.17-1.14,12.34-1.7,18.51c-0.31,3.41-0.55,6.82-0.56,10.24c0,0.69-0.04,1.4,0.41,2c0.98,1.32,2.14,2.46,3.48,3.43
			c0.62,0.45,1.17,0.38,1.76-0.03c2.24-1.57,3.71-3.49,3.5-6.44C382.57,210.89,382.41,206.73,382.2,202.57z"/>
		<path class="st0" d="M437.87,126.15c1.86-0.97,3.93-1.48,5.97-1.48c3.02,0,5.96,1.11,8.28,3.13c4.09,3.56,6.73,8.36,7.85,14.28
			c0.39,2.05,0.1,4.21-0.9,6.6c-0.47,1.14-0.77,2.25-0.9,3.37c2.71,0.65,5.51,1.16,8.4,1.52c5.25,0.65,10.23-0.06,14.98-2.71
			c7.9-4.41,15.97-8.52,23.95-12.8c0.83-0.45,1.9-0.64,2.36-1.71c-0.68-0.88-1.73-0.87-2.65-1.14
			c-18.53-5.46-34.82-14.64-47.72-29.22c-8.27-9.34-14.56-19.89-17.94-32.02c-1.72-6.17-2.24-12.32,0.1-18.48
			c0.26-0.69,0.74-1.46,0.04-2.52c-1.41,0.67-2.01,1.84-2.77,2.85c-7.95,10.58-15.81,21.23-23.85,31.74
			c-5.36,7.01-5.61,7.23-3.73,16.72c1.58,7.96,5.38,14.95,10.1,21.44c3.01,4.15,6.29,7.84,9.84,11.09
			C430.65,132.3,433.72,128.31,437.87,126.15z"/>
		<path class="st0" d="M299.89,125.45c-0.93,1.38-1.64,2.95-2.11,4.68c-0.74,2.73-1.06,5.39-0.93,7.97
			c-9.7,7.34-20.36,11.89-33.01,11.68c-0.17,1.41,0.62,2,1.14,2.67c2.04,2.7,4.12,5.37,6.22,8.03c0.89,1.12,1.54,2.31,1.53,3.79
			c-0.01,1.23-0.43,2.2-1.2,2.95c0.91,1.2,1.63,2.58,2.16,4.13c1.19,3.48,1.92,7.2,2.22,11.37c0.07,1.03,0.15,2.04,0.22,3.03v0.01
			c0.42,5.67,0.83,10.92,1.31,16.14c0.09,0.94,0.19,1.89,0.3,2.84c1.43-9.11,2.58-18.24,3.56-27.4c0.14-1.28,0.42-2.55,0.52-3.83
			c0.14-1.85,1.13-3.02,2.74-3.74c1.54-0.69,3.08-1.36,4.62-2.04c2.94-1.31,5.86-2.67,8.57-4.44c1.87-1.23,3.62-2.61,5.15-4.25
			c0.23-0.25,0.4-0.57,0.88-0.68c1.31,10.26,2.74,20.48,7.51,29.94c0.43-0.25,0.3-0.68,0.32-1.02c0.37-4.3,0.71-8.6,1.49-12.84
			c0.2-1.12,0.42-2.25,0.75-3.34c0.28-0.93,0.06-1.62-0.61-2.27c-0.46-0.45-0.85-0.97-1.27-1.46c-0.38-0.43-0.43-0.87-0.04-1.33
			c0.19-0.22,0.36-0.48,0.54-0.71c0.94-1.21,0.93-1.2-0.31-2.21c-1.57-1.28-3.3-2.38-4.74-3.83c-0.42-0.42-0.81-0.88-1.23-1.29
			c-0.92-0.89-1.34-1.96-1.1-3.23c0.04-0.2,0.07-0.41,0.1-0.61c-0.6-1-0.79-2.09-0.81-3.23c-0.02-0.94-0.04-1.88-0.06-2.82
			c-0.31-0.78-0.68-1.55-1.08-2.31c-1.92-3.59-2.53-7.37-2.07-11.2c0.13-1.12,0.36-2.25,0.66-3.38c1.32-4.85,5.03-7.9,10.39-8.39
			c1.02-0.09,2.03-0.12,3.03,0c0.85,0.1,1.69,0.3,2.51,0.67c2.65,1.16,4.47,3.05,5.55,5.7c0.43,1.05,0.74,2.15,1,3.25
			c0.03,0.1,0.05,0.2,0.07,0.3c0.23,0.97,0.5,1.92,0.92,2.82c1.08,2.26,1.06,4.52,0.41,6.78c-0.1,0.34-0.21,0.68-0.33,1.01
			c-0.36,0.97-0.81,1.92-1.21,2.87c-0.71,1.7-0.9,3.44-0.44,5.24c0.43,1.67-0.04,3.14-1.04,4.47c-1.96,2.62-3.97,5.21-6.39,7.44
			c-0.18,0.16-0.33,0.35-0.49,0.52c0.15,0.57,0.65,0.64,1,0.86c0.42,0.26,0.85,0.51,1.15,0.92c0.59,0.79,0.58,1.05-0.11,1.78
			c-0.51,0.54-1.02,1.09-1.55,1.6c-0.42,0.41-0.53,0.78-0.11,1.26c0.93,1.08,1.38,2.39,1.78,3.73c1.05,3.51,2.09,7.02,3.15,10.53
			c0.38,1.27,0.81,2.53,1.35,3.72c0.54-0.06,0.4-0.44,0.43-0.69c1.32-9.93,2.12-19.91,2.97-29.88c0.02-0.2,0.01-0.4,0.04-0.59
			c0.07-0.59,0.38-0.63,0.81-0.33c4.63,3.23,10.02,4.68,15.27,6.48c0.92,0.32,1.86,0.59,2.79,0.91c0.25,0.08,0.49,0.17,0.74,0.26
			c1.63,0.59,2.59,1.73,2.77,3.51c0.02,0.19,0.04,0.39,0.06,0.58c0.42,4.25,0.88,8.49,1.32,12.73c0.37,3.6,0.87,7.18,1.44,10.74
			c-0.2,2.55-0.32,5.08-0.38,7.58c-0.19,8.01,0.49,15.44,2.07,22.45c-0.04,0.3-0.09,0.59-0.14,0.89c-0.85,5.54-2.01,11.01-3.57,16.4
			c-0.79,2.72-1.76,5.38-3.1,7.87c-1.29,2.39-2.07,4.88-2.37,7.6c-0.36,3.31-0.52,6.61-0.45,9.94h-25.9
			c-0.47-1.36-0.54-2.8-0.91-4.17c-0.13-0.48-0.12-1.07-0.77-1.36c-0.81,1.8-0.7,3.7-1,5.53h-25.9c-0.9-1.05-1.79-2.12-2.7-3.16
			c-1.91-2.16-2.87-4.62-3.02-7.55c-0.32-6.64-1.46-13.19-2.75-19.71c-0.12-0.62-0.25-1.24-0.37-1.86c0.01,1.61,0,3.27-0.03,4.99
			c-0.07,4.75-0.32,8.71-0.79,12.47c-0.02,0.12-0.01,0.37,0.1,0.83c0.59,2.35,0.66,4.71,0.21,7.11c-0.37,1.97-1.09,3.97-2.16,6.02
			c-0.77,1.46-1.77,2.61-3.01,3.43l-0.43,1.61h-32.1v0l-3.85,0h-25.93c0.53,0,1.06,0.02,1.58,0.02
			c63.32-0.01,126.65-0.01,189.97-0.02c0.09,0,0.17,0,0.26,0c0.81-0.01,1.62-0.04,2.43-0.02c1.27,0.04,2.05-0.51,2.42-1.74
			c0.3-0.98,0.64-1.94,1.01-2.88c0.93-2.35,2.08-4.57,3.42-6.68v0c-0.14-1.51,0.02-3,0.51-4.47c0.34-1.03,0.5-2.19,0.56-3.87
			c0.02-0.74,0.05-1.47,0.08-2.21c-1.21,0-2.42,0.01-3.62-0.07c-0.25-0.01-0.51-0.03-0.76-0.06c-2.1-0.19-3.71-2.1-3.71-4.03
			c-0.01-1.82,1.11-3.2,2.99-3.67c0.26-0.07,0.54-0.11,0.83-0.14c1.18-0.11,2.38-0.05,3.58-0.06c0.37,0,0.74,0,1.1,0
			c1.4,0,2.79,0,4.19,0c0.05-0.82,0.1-1.64,0.15-2.46c0.14-2.31,0.29-4.62,0.42-6.93c0.11-1.86,0.22-3.73,0.33-5.59
			c-0.21-0.4-0.41-0.82-0.6-1.23c0.28-0.65,0.55-1.29,0.79-1.95c0,0,0-0.01,0-0.01c0.01-0.24,0.03-0.48,0.04-0.72
			c0.43-6.93,1.01-13.85,0.94-20.8c0-0.48-0.01-0.95-0.01-1.43v-0.04c-0.22-0.95-0.42-1.86-0.59-2.76
			c-0.04-0.23-0.09-0.46-0.13-0.69c0.24-0.48,0.48-0.95,0.73-1.42v-0.02c0.01-0.79,0.01-1.58,0.02-2.38c0.02-1.9,0.05-3.8,0.08-5.7
			c0.01-0.31,0.01-0.62,0.03-0.93c0.01-0.31,0.03-0.62,0.05-0.93c0.02-0.25,0.04-0.51,0.06-0.76c0.02-0.17,0.03-0.33,0.05-0.5
			c0.02-0.2,0.04-0.39,0.07-0.59c0.03-0.22,0.05-0.43,0.09-0.65c0.03-0.21,0.06-0.41,0.09-0.62c0.12-0.8,0.26-1.61,0.42-2.41
			c0.23-1.15,0.77-2.12,1.59-2.97c1.45-1.51,3.04-2.85,4.75-4.05c2.71-1.9,5.45-3.76,8.06-5.81c-0.48-0.76-0.86-1.58-1.13-2.44
			c-0.16-0.53-0.34-1.05-0.53-1.57c-1.08-2.97-2.59-5.83-4.18-8.83l-0.25-0.47c-0.55-1.03-1.12-2.35-1.19-3.94
			c-13.65-9.8-23.27-23.72-27.96-42.62c-0.88,0.06-1.14,0.51-1.43,0.9c-4.84,6.6-9.64,13.22-14.48,19.82
			c-1.63-0.95-3.48-1.55-5.51-1.76c-0.57-0.06-1.15-0.09-1.71-0.09c-0.87,0-1.73,0.07-2.57,0.2c4.85-6.52,9.71-13.04,14.55-19.57
			c0.56-0.76,1.44-1.42,1.23-2.56c-0.6-0.46-1.19-0.16-1.75-0.05c-7.17,1.38-14.4,1.63-21.68,1.4c-16.47-0.52-31.19-5.75-44.17-15.9
			c-3.28-2.57-6.36-5.37-9.59-8.32c-0.77,1.21-0.56,2.12-0.56,3c-0.02,11.25,0.05,22.5-0.07,33.75c-0.01,1.01,0.08,1.96,0.28,2.87
			c-0.51,0.01-1.05,0.04-1.63,0.09c-3.76,0.34-7.01,1.73-9.5,3.95c-0.2,0.29-0.43,0.58-0.67,0.86
			C301.08,124.16,300.49,124.81,299.89,125.45z M414.99,231.83c-0.23-0.32-0.45-0.65-0.67-0.98c0.27-0.36,0.53-0.73,0.8-1.11
			C415.07,230.44,415.03,231.14,414.99,231.83z M417.07,180.3c0.06,0.24,0.12,0.48,0.18,0.73c-0.09,0.01-0.18,0.02-0.27,0.02
			C417.01,180.81,417.04,180.55,417.07,180.3z M368.8,132.61c0.24-0.33,0.48-0.65,0.73-0.98c2.23-2.65,5.71-4,9.55-3.62
			c1.25,0.13,2.41,0.45,3.44,0.99c1.75,0.9,3.14,2.38,4.02,4.44c0.57,1.32,0.94,2.71,1.29,4.1c0.31,1.2,0.54,2.42,0.93,3.59
			c0.85,2.51,0.59,4.9-0.67,7.18c-0.97,1.75-1.36,3.6-1.16,5.58c0.14,1.35,0.53,2.6,1.26,3.76c1.62,2.54,3.77,4.47,6.53,5.67
			c2.63,1.14,5.31,2.19,7.96,3.28c1.61,0.66,3.07,1.59,4.46,2.64c2.36,1.79,3.7,4.18,4.51,6.98c0.44,1.54,0.86,3.09,1.25,4.64
			c1.25,4.98,2.24,10.01,3.18,15.07c0.16,0.83,0.33,1.65,0.52,2.47c0,0.02,0,0.04,0,0.07c0.23,1.01,0.48,2.05,0.69,3.06
			c-0.31,1.11-0.56,2.23-0.75,3.37c0,0.01,0,0.03,0,0.04c-0.07,2.15-0.18,4.31-0.31,6.46v0.01c0.1,1.73,0.32,3.4,0.65,5
			c-0.33,1.22-0.73,2.43-1.21,3.62c-0.37,0.94-0.79,1.87-1.26,2.79c-0.72,1.42-1.54,2.77-2.43,4.08c-1.01,1.47-2.1,2.89-3.23,4.28
			c-0.94,1.15-1.87,2.31-2.78,3.48c-1.01,1.31-1.47,2.74-1.21,4.44c0.51,3.43,1.25,6.82,1.94,10.22c0.12,0.58,0.23,1.17,0.36,1.75
			c0.24,1.07-0.12,1.94-1.1,2.33c-1.16,0.46-1.37,1.24-1.28,2.34c0.26,3.01,0.48,6.03,0.71,9.04h-41.97c-0.21-2.67-0.41-5.34-0.62-8
			c-0.07-0.82-0.23-1.59-1.01-2.04c-0.91-0.52-1.1-1.34-1.02-2.29c0.25-2.82,0.52-5.63,0.72-8.44c0.17-2.32,0.6-4.62,0.22-6.96
			c-0.26-1.58-0.7-3.1-1.29-4.57c-1.4-3.47-2.5-7-3.34-10.56c-1.71-7.23-2.33-14.64-2.15-22.18c0.06-2.62,0.2-5.24,0.41-7.85
			c0.27-3.46,0.68-6.92,1.2-10.36c0.64-4.27,2.6-7.62,6.15-10.08c2.07-1.44,4.16-2.87,6.08-4.52c0.82-0.7,1.56-1.47,2.19-2.33
			c0.22-0.29,0.43-0.6,0.63-0.91c0.73-1.16,0.92-2.39,0.44-3.69c-0.19-0.51-0.39-1.02-0.62-1.51c-2.85-6.06-4.29-12.5-4.41-19.13
			C366.95,136.7,367.62,134.42,368.8,132.61z M329.98,136.3c9.09,5.28,18.88,7.18,29.4,5.38c1.34-0.23,2.47-0.69,3.45-1.46
			c0.13,3.86,0.67,7.63,1.62,11.29c-0.19,0.11-0.41,0.29-0.66,0.55c-0.42,0.42-0.76,0.92-1.13,1.39c-2.76,3.53-5.51,7.06-8.26,10.6
			c-0.67,0.86-1.34,1.73-2.1,2.51c-0.6-2.82-2.5-4.97-5.33-6.01c-0.16-0.06-0.33-0.12-0.49-0.17c2.07-2.76,4.15-5.51,6.19-8.29
			c0.44-0.6,1.17-1.13,0.88-2.22c-1.52-0.33-3.11-0.2-4.67-0.17c-6.2,0.11-11.99-1.4-17.55-4.12c-0.65-0.32-1.3-0.65-1.94-1
			C330.42,141.67,330.62,138.9,329.98,136.3z"/>
		<path class="st0" d="M502.18,360.24c0.39,2.66,2.76,4.05,5.3,3.17c1.93-0.67,2.77-2.02,2.91-4.05c0.23-3.31-0.55-6.54-0.52-9.82
			c0.08-8.15,0.86-16.3,0.48-24.46c-0.01-0.2-0.01-0.4,0.01-0.6c0.08-0.68,0.08-1.51,0.91-1.68c0.65-0.13,1.05,0.49,1.37,0.98
			c1.14,1.75,2.23,3.54,3.36,5.29c3.22,5.02,6.44,10.04,9.67,15.05c3.67,5.68,7.31,11.39,11.06,17.02c1.4,2.11,4.49,2.98,6.91,2.1
			c2.26-0.82,1.63-2.9,1.8-4.6c0.01-0.1,0-0.2,0-0.3c0.01-16.62,0.02-33.24,0.02-49.86c0-0.6,0.02-1.2-0.04-1.79
			c-0.25-2.38-1.91-4-4.04-3.97c-2.05,0.02-3.64,1.49-3.92,3.75c-0.14,1.08-0.12,2.18-0.12,3.28c-0.02,10.45-0.01,20.9-0.04,31.35
			c-0.01,1.13,0.38,2.41-0.7,3.34c-1.13-0.1-1.39-1.08-1.85-1.79c-7.24-11.31-14.46-22.64-21.68-33.96
			c-0.86-1.34-1.72-2.68-2.67-3.96c-1.44-1.94-3.08-2.4-5.54-1.69c-1.97,0.57-2.53,1.38-2.73,4.04c-0.06,0.79-0.05,1.59-0.05,2.39
			c0,16.12,0,32.25,0.01,48.37C502.1,358.65,502.07,359.46,502.18,360.24z"/>
		<path class="st0" d="M169.11,218.52c0,0.2-0.01,0.4-0.01,0.6c0.01,0.99-0.16,1.93-0.5,2.81c0.56-0.05,1.11-0.11,1.66-0.19
			C169.86,220.64,169.48,219.57,169.11,218.52z"/>
		<path class="st0" d="M94.05,266.07c1.19,2.19,2.83,3.01,5.32,2.96c6.37-0.13,12.73-0.04,19.1-0.04v-0.02
			c6.66,0,13.32,0.02,19.98-0.01h0l-0.86-1.08c-0.11-0.05-0.22-0.1-0.33-0.15c-2.67-1.28-4.71-3.29-6.06-5.97
			c-1.2-2.37-1.79-4.89-1.79-7.54c0,0-0.01-0.01-0.01-0.01c-1.83-1.59-3.79-3.05-5.87-4.4c-2.42-1.57-5.04-2.25-7.91-2.24
			c-12.04,0.02-24.08-0.02-36.12,0.02c-1,0-2.55-0.56-2.85,0.77c-0.26,1.18,1.23,1.68,2.15,2.18
			C85.49,254.15,90.45,259.46,94.05,266.07z"/>
		<path class="st0" d="M453.13,319.84c0.32,4.95-0.34,9.87-0.16,14.85c0.31,8.54,0.42,17.11-0.1,25.66
			c-0.11,1.92,0.59,2.8,2.45,3.03c0.79,0.1,1.59,0.06,2.39,0.06c5.37,0,10.75,0,16.13,0c0,0,0,0,0,0.01
			c5.48,0,10.95,0.01,16.43-0.01c0.99,0,2.01,0.01,2.97-0.21c1.9-0.42,2.79-1.7,2.78-3.69c-0.02-2.08-1.11-3.5-3.04-3.82
			c-0.88-0.14-1.79-0.11-2.68-0.11c-7.67-0.01-15.33,0-23-0.01c-1,0-2,0.02-2.98-0.07c-2.42-0.24-2.96-0.76-3-3.15
			c-0.06-3.78-0.07-7.57-0.01-11.35c0.05-3.16,0.78-3.87,3.91-3.89c4.28-0.02,8.56,0.01,12.84,0.01c0.8,0,1.6,0.03,2.39-0.07
			c2.03-0.26,3.28-1.52,3.54-3.45c0.24-1.83-0.54-3.22-2.26-4.15c-1.11-0.6-2.3-0.57-3.49-0.58c-4.68-0.01-9.36,0.04-14.04-0.03
			c-2.19-0.03-2.78-0.54-2.84-2.58c-0.13-4.18-0.15-8.36-0.1-12.54c0.02-1.58,1.03-2.52,2.62-2.78c0.68-0.11,1.39-0.08,2.09-0.08
			c7.67-0.01,15.33-0.01,23,0.01c1.09,0,2.19,0.19,3.28,0.15c2.07-0.09,3.66-1.62,3.78-3.53c0.13-2.18-1.17-3.89-3.34-4.23
			c-0.88-0.14-1.78-0.1-2.68-0.1c-4.28-0.02-8.59,0.28-12.83-0.13c-6.27-0.6-12.53-0.22-18.79-0.35c-0.88-0.02-1.79,0.14-2.66,0.31
			c-1.95,0.39-2.77,1.18-3.02,3.14c-0.16,1.28-0.28,2.63-0.03,3.87C453.31,313.29,452.92,316.57,453.13,319.84z"/>
		<path class="st0" d="M126.84,224.54c-0.37-6.33-0.26-13.08,0.31-20.63c0.22-2.81,0.31-5.72,0.4-8.54l0-0.05
			c0.07-2.13,0.13-4.31,0.18-6.41c0.07-2.77,0.15-5.64,0.25-8.48c0.08-2.15,0.26-4.34,0.53-6.7c0.5-4.23,2.77-7.41,6.56-9.18
			c1.06-0.5,2.13-1.01,3.19-1.52v0c-1-1.47-2.23-2.58-3.87-3.42c-10.1-5.17-20.15-10.43-30.23-15.63c-0.87-0.45-1.66-1.11-2.87-1.15
			c-0.06,0.33-0.11,0.44-0.09,0.52c0.27,0.85,0.54,1.7,0.84,2.54c3.98,10.93,5.46,22.23,4.28,33.77
			c-2.17,21.12-9.89,40.05-23.1,56.71c-0.37,0.47-0.78,0.91-1.08,1.43c-0.38,0.67-0.13,1.14,0.65,1.26
			c0.39,0.06,0.79,0.08,1.19,0.08c10.65-0.02,21.3,0.02,31.94-0.09c2.67-0.03,5.32-0.39,7.7-1.95c1.3-0.85,2.56-1.75,3.78-2.7
			c-0.12-2.2-0.25-4.4-0.38-6.56C126.97,226.73,126.91,225.63,126.84,224.54z"/>
		<path class="st0" d="M147.09,149.05c-0.91-2.56-1.23-5.12-0.94-7.59c0.38-3.24,0.74-6.07,1.11-8.65
			c1.17-8.28,8.13-12.05,14.1-12.05c1.47,0,2.9,0.21,4.26,0.63c1.13,0.35,2.24,0.82,3.6,1.55c2.82,1.5,4.8,3.87,5.87,7.03
			c0.95,2.8,1.22,5.56,1.35,7.65c0.01,0.16,0.02,0.32,0.03,0.49c0.01,0.24,0.03,0.56,0.05,0.69c0.67,2.04,0.82,4.11,0.46,6.21
			c0,0,0,0,0,0h0c13.7-7.96,23.17-19.92,29.47-34.85c1.57-3.7,2.4-7.6,2.55-11.6c0.16-4.32-1.83-7.82-4.52-11.05
			c-7.38-8.88-14.11-18.26-20.99-27.52c-1.64-2.21-3.29-4.43-5.21-7.01c-0.45,1.53-0.03,2.38,0.09,3.25
			c0.12,0.88,0.41,1.75,0.51,2.63c0.89,8.01-0.61,15.63-3.81,22.96c-6.64,15.21-16.67,27.71-30.01,37.55
			c-10.06,7.42-21.37,12.24-33.26,15.79c-0.91,0.28-1.98,0.22-2.65,1.07c0.08,0.66,0.63,0.75,1.05,0.97
			c9.35,4.88,18.7,9.75,28.05,14.63c2.7,1.4,5.55,2,8.62,1.98c0.79-0.01,1.58-0.03,2.36-0.07c-0.03-0.05-0.05-0.1-0.08-0.14
			C148.39,152.32,147.75,150.92,147.09,149.05z"/>
		<path class="st0" d="M480.06,263.3c0.04,0.4,0.05,0.74,0.06,1.01c0,0.08,0,0.16,0.01,0.23l0.25,4.37
			c13.06,0.01,26.11-0.01,39.17,0.05c1.98,0.01,3.11-0.87,3.96-2.53c1.63-3.2,3.68-6.14,6.07-8.82c1.86-2.1,3.93-3.83,6.93-4.29
			c3.77-0.58,3.75-0.72,4.88-4.42c0.08-0.25-0.02-0.56-0.03-0.82c-0.97-0.58-2-0.42-2.96-0.42c-12.62-0.04-25.25-0.04-37.87-0.07
			c-2.17-0.01-4.11,0.65-5.89,1.82c-4.34,2.86-8.31,6.15-11.72,10.08c-0.71,0.82-1.39,1.67-2.04,2.55c0,0,0,0.01,0,0.01
			C480.65,262.46,480.39,262.89,480.06,263.3z"/>
		<path class="st0" d="M114.1,340.51c-2.81-2.57-6.1-4.46-9.24-6.55c-6.96-4.61-13.98-9.14-20.98-13.7
			c-1.35-0.88-2.59-1.86-3.39-3.29c-1.52-2.74-0.19-5.53,2.92-6.01c0.78-0.12,1.59-0.07,2.38-0.07c6.47-0.01,12.94-0.01,19.4-0.01
			c4.54,0,4.54,0.01,5.79,4.49c0.72,2.59,2.82,3.64,5.28,2.61c2.01-0.85,3.22-2.34,3.29-4.56c0.17-4.87-2.52-9.06-8.42-10.24
			c-5.85-1.17-11.69-0.06-17.52-0.17c-3.37-0.06-6.73,0.1-10.11-0.15c-6.95-0.49-12.95,4.7-12.38,12.69
			c0.36,5.1,3.01,8.98,7.22,11.78c3.64,2.42,7.35,4.76,11.04,7.11c5.53,3.53,11.08,7.05,16.62,10.56c2.05,1.3,3.87,2.75,4.7,5.19
			c0.96,2.81-0.34,5.04-3.24,5.36c-0.49,0.06-1,0.05-1.49,0.05c-6.97,0-13.93,0.03-20.9-0.01c-4.32-0.02-4.53-0.2-6.14-4.38
			c-0.59-1.55-1.63-2.39-3.35-2.47c-1.72-0.08-3.18,0.23-4.02,1.91c-0.54,1.08-0.86,2.22-0.82,3.45c0.14,4.58,4.49,9.45,9.13,9.36
			c4.98-0.09,9.95-0.02,14.93-0.02v0.02c2.49,0,4.98,0,7.46,0c2.49-0.01,4.98,0.04,7.46-0.04c5.4-0.19,9.3-3.95,9.84-9.34
			C120.11,348.6,118.08,344.16,114.1,340.51z"/>
		<path class="st0" d="M211.37,268.97c0.17-0.01,0.34-0.01,0.51-0.01h-0.93C211.09,268.97,211.22,268.98,211.37,268.97z"/>
		<path class="st0" d="M192.34,264.6c-0.02,0.27-0.06,0.5-0.09,0.65l-0.01,0.04l-0.42,3.67h-39.34c0,0,0,0,0.01,0
			c0.27,0.03,0.55,0.04,0.85,0.04c14.93-0.02,29.86-0.01,44.79-0.04c2.51-0.01,2.68-0.32,1.75-2.56c-0.97-2.33-2.14-4.5-3.5-6.51
			c0,0,0,0,0-0.01C195.41,261.73,194.07,263.31,192.34,264.6z"/>
		<path class="st0" d="M215.67,88.2c0.68,0.9,1.52,1.54,2.55,1.99c5.97,2.65,12.19,4.38,18.69,4.87
			c15.81,1.19,30.71-2.03,44.55-9.79c8.82-4.95,16.21-11.5,21.49-20.25c0.9-1.49,1.4-3.03,1.39-4.79c-0.02-10.55,0-21.11-0.02-31.66
			c0-0.63,0.27-1.43-0.7-1.87c-0.24,0.29-0.51,0.56-0.72,0.88c-6.73,9.91-15.82,17.06-26.57,22.03
			c-16.58,7.66-34.27,10.91-52.36,12.09c-9.79,0.64-19.5-0.16-28.94-3.09c-0.37-0.11-0.76-0.3-1.08,0.06
			c-0.15,0.47,0.16,0.77,0.39,1.08C201.46,69.25,208.57,78.72,215.67,88.2z"/>
		<path class="st0" d="M313.18,58.78c-0.03,2.82,0.75,5.22,2.16,7.59c5.1,8.55,12.47,14.67,21.03,19.41
			c13.71,7.59,28.5,10.44,44.06,9.25c6.49-0.49,12.75-2.1,18.71-4.81c1.38-0.63,2.54-1.47,3.46-2.73
			c6.43-8.74,12.9-17.44,19.34-26.17c0.56-0.77,1.4-1.44,1.32-2.55c-0.71-0.59-1.37-0.11-1.99,0.06
			c-11.68,3.23-23.57,3.61-35.52,2.27c-17.18-1.93-33.46-6.98-48.82-14.93c-8.68-4.5-16.28-10.33-22.29-18.11
			c-0.24-0.3-0.44-0.67-1.13-0.71c-0.49,1.17-0.29,2.28-0.3,3.36C313.19,40.07,313.28,49.42,313.18,58.78z"/>
		<path class="st0" d="M464.37,268.98c0.17,0,0.33-0.01,0.48-0.02h-11.76C456.85,268.97,460.61,268.97,464.37,268.98z"/>
		<path class="st0" d="M453.04,217.45c-0.06,0.57-0.16,1.1-0.3,1.6c0.3-0.04,0.61-0.09,0.91-0.13
			C453.44,218.42,453.24,217.94,453.04,217.45z"/>
		<path class="st0" d="M417.27,267.68c-0.2,0.87,0.11,1.16,1.2,1.23l-1.18-1.22C417.28,267.69,417.28,267.68,417.27,267.68z"/>
		<path class="st0" d="M210.61,255.96c-1.17-0.38-2.33-1-3.45-1.84c-2.42-1.83-3.66-4.34-3.57-7.07c-1.79,0-3.59,0-5.44,0
			c-0.03,0.72-0.03,1.48,0,2.28c4.63,5.34,9.09,10.78,10.83,17.88c0.26,1.08,0.92,1.66,1.94,1.75l-0.2-3.97
			C210.55,261.99,210.56,259.08,210.61,255.96z"/>
		<path class="st0" d="M204.17,239.07h0.41c-0.01-0.21-0.03-0.42-0.05-0.63c-0.16-1.51-0.53-2.97-1.14-4.46
			c-0.28-0.68-0.56-1.38-0.85-2.08c-0.41,0.56-0.83,1.11-1.27,1.65c0,0,0,0.01-0.01,0.01c-0.42,1.87-0.88,3.71-1.37,5.5c0,0,0,0,0,0
			C201.33,239.06,202.75,239.06,204.17,239.07z"/>
		<path class="st0" d="M260.31,160.38c-1.87-2.36-3.74-4.73-5.62-7.09c-0.43-0.54-0.86-1.11-1.36-1.58c-0.32-0.3-0.7-0.36-0.97-0.11
			l0,0c0,0-0.01,0.01-0.01,0.01c-0.11,0.22-0.22,0.44-0.34,0.66c0,0,0,0.01,0,0.01c-0.19,0.53-0.31,1.09-0.48,1.63
			c-0.21,0.66-0.42,1.31-0.66,1.95c0,0,0,0,0,0c0.02,0.1,0.03,0.19,0.05,0.3c2.72,1.38,5.51,2.56,8.46,3.81
			C259.67,160.11,259.99,160.24,260.31,160.38z"/>
		<path class="st0" d="M163.93,303.11c-4.57,0.18-9.15,0.03-13.73,0.03v-0.12c-5.17,0-10.35-0.05-15.52,0.02
			c-3.01,0.04-3.6,0.75-3.69,3.77c-0.01,0.4-0.01,0.8-0.01,1.2c0,16.71,0,33.42,0.01,50.13c0,0.9-0.04,1.8,0.09,2.68
			c0.26,1.78,1.44,2.79,3.23,2.91c3.08,0.21,4.88-1.35,4.93-4.58c0.09-5.37,0.03-10.74,0.04-16.11c0.01-4.47,0.21-4.67,4.75-4.68
			c6.76-0.01,13.53-0.02,20.29,0c6.36,0.02,11.67-5.23,11.57-11.56c-0.06-3.98-0.1-7.96,0.03-11.94
			C176.13,308.79,172.08,302.79,163.93,303.11z M167.51,325.11c-0.09,3.34-1.26,4.66-4.74,4.87c-3.57,0.21-7.16,0.05-10.74,0.05
			c0-0.02,0-0.03,0-0.05c-3.08,0-6.17,0-9.25,0c-2.94,0-3.45-0.47-3.48-3.47c-0.04-3.98-0.05-7.96,0.01-11.94
			c0.04-2.84,0.76-3.61,3.54-3.64c6.66-0.07,13.33-0.08,19.99,0c3.1,0.04,4.57,1.55,4.66,4.63
			C167.6,318.74,167.6,321.93,167.51,325.11z"/>
		<path class="st0" d="M246.39,395.64c1.48-0.01,2.96,0.07,4.44-0.05c1.77-0.13,2.65-1.28,2.61-2.97c-0.04-1.66-1.05-2.45-2.73-2.38
			c-0.59,0.03-1.18,0-1.78,0v0.02c-0.79,0-1.58,0.04-2.36-0.01c-2.16-0.15-1.73,1.43-1.69,2.61
			C244.92,393.98,244.18,395.66,246.39,395.64z"/>
		<path class="st0" d="M286.49,310.91c2.39-0.06,4.78-0.07,7.17-0.02c6.57,0.12,13.13-0.27,19.7,0.24c2.25,0.18,4.11-1.18,4.49-3.11
			c0.45-2.27-0.63-3.95-3.09-4.67c-1.82-0.53-3.7-0.63-5.6-0.73c-10.24-0.53-20.47,1.2-30.72,0.22c-0.48-0.04-0.99,0.09-1.48,0.17
			c-2.1,0.36-2.74,0.99-2.97,3.08c-0.1,0.89-0.07,1.79-0.07,2.69c0,8.16,0,16.33,0,24.49c0,0,0.01,0,0.01,0c0,8.26,0,16.53,0,24.79
			c0,0.89-0.03,1.8,0.07,2.68c0.2,1.78,0.88,2.45,2.64,2.65c0.79,0.09,1.59,0.06,2.38,0.06c10.95,0,21.91,0,32.86,0
			c0.9,0,1.8,0.02,2.69-0.08c2.18-0.26,3.29-1.42,3.37-3.46c0.09-2.15-1.02-3.72-3.09-4.13c-0.97-0.19-1.98-0.16-2.97-0.16
			c-8.07-0.01-16.13-0.01-24.2-0.01c-0.9,0-1.8,0.04-2.69-0.06c-1.85-0.2-2.61-0.8-2.65-2.59c-0.11-4.38-0.1-8.76,0.01-13.13
			c0.05-1.74,0.91-2.43,2.68-2.59c1.19-0.11,2.39-0.04,3.58-0.04c4.18-0.01,8.36,0.05,12.54-0.05c2.83-0.07,4.3-1.49,4.36-3.87
			c0.06-2.31-1.48-3.95-4.09-4.29c-0.88-0.11-1.79-0.08-2.68-0.08c-4.38-0.01-8.76,0.02-13.14-0.03c-2.81-0.04-3.28-0.51-3.33-3.35
			c-0.06-3.48-0.07-6.97,0-10.45C282.32,312.06,283.44,310.99,286.49,310.91z"/>
		<path class="st0" d="M431.84,322.82c1.34,0.4,0.84,2.06,0.84,3.19c0.04,10.55,0.04,21.1,0.05,31.65c0,0.99,0.01,1.99,0.12,2.98
			c0.11,1.03,0.6,1.9,1.52,2.44c2.81,1.66,6.1,0.09,6.51-3.14c0.13-0.98,0.09-1.99,0.09-2.98c0.01-7.86,0-15.73,0-23.59
			c0-2.79,0-5.57,0-8.36c-0.01-5.87,0.03-11.75-0.04-17.61c-0.03-2.47-1.01-3.81-2.89-4.36c-2.07-0.61-3.42,0.49-4.56,2.01
			c-1.31,1.75-2.63,3.5-3.94,5.25c-4.46,5.98-8.89,11.98-13.4,17.93c-1.58,2.08-2.24,2.02-3.8-0.1
			c-5.02-6.8-10.02-13.62-15.05-20.42c-0.89-1.2-1.77-2.41-2.78-3.51c-1.28-1.39-3.55-1.65-5.24-0.76
			c-1.43,0.76-2.03,2.01-1.61,4.09c0.32,1.59,0.29,3.16,0.29,4.75c0.02,15.03,0.02,30.06,0.02,45.08c0,1-0.06,1.99,0,2.99
			c0.1,1.81,0.87,2.7,2.6,3.16c2.69,0.73,5.36-1.3,5.57-4.23c0.23-3.19-0.37-6.35-0.39-9.53c-0.07-7.96-0.02-15.91,0.01-23.87
			c0-0.79,0.03-1.6,0.21-2.37c0.2-0.87,0.83-1.17,1.53-0.49c0.99,0.97,1.96,1.98,2.8,3.08c3.02,3.96,5.92,8,8.97,11.93
			c2.04,2.63,5.16,3.42,7.68,2.16c1.38-0.69,2.32-1.86,3.19-3.08c2.95-4.13,5.89-8.27,9.14-12.17
			C430.03,324.1,430.55,322.43,431.84,322.82z"/>
		<path class="st0" d="M248.33,404.44c2.21-0.05,5.14,0.44,5.2-2.8c0.07-3.32-2.88-2.76-5.39-2.93c-0.78,0.71-2.58-1.02-3.23,1.1
			C243.91,403.06,244.97,404.52,248.33,404.44z"/>
		<path class="st0" d="M357.69,339.55c-0.65-0.75-1.31-1.51-1.84-2.34c-0.71-1.11-0.45-1.68,0.88-1.74c2.18-0.1,4.38-0.04,6.56-0.08
			c5.76-0.12,9.99-3.68,10.96-9.41c0.78-4.55,0.54-9.12-0.07-13.67c-0.62-4.72-3.34-7.8-7.99-8.88c-1.73-0.4-3.53-0.71-5.3-0.72
			c-8.86-0.07-17.71-0.08-26.57-0.01c-3.99,0.03-4.87,1.02-4.88,5.01c-0.01,8.36-0.01,16.71,0,25.07c0,8.75-0.03,17.51,0.02,26.26
			c0.01,3.12,1.24,4.39,3.97,4.43c2.88,0.04,4.26-1.31,4.34-4.44c0.08-2.78,0.03-5.57,0.03-8.36c0.01-3.88-0.09-7.76,0.05-11.64
			c0.12-3.23,2.73-4.71,5.37-3.16c0.67,0.39,1.23,1.01,1.75,1.6c2.04,2.31,4.05,4.65,6.08,6.98c4.97,5.69,9.93,11.39,14.91,17.07
			c1.75,2,3.96,2.53,6.48,1.89c3.11-0.79,3.67-2.76,1.53-5.21C368.54,351.98,363.11,345.77,357.69,339.55z M348.63,327.62
			c-2.39,0-4.78,0.04-7.17-0.02c-2.93-0.08-3.59-0.78-3.64-3.83c-0.05-2.99-0.05-5.97-0.01-8.96c0.05-3.02,0.84-3.82,3.99-3.9
			c3.28-0.08,6.57-0.02,9.86-0.02c3.19,0,6.37-0.04,9.56,0.01c3.37,0.06,4.63,1.35,4.72,4.74c0.04,1.59,0.1,3.17,0.33,4.75
			c0.67,4.64-1.24,6.99-5.98,7.18C356.4,327.73,352.51,327.62,348.63,327.62z"/>
		<path class="st0" d="M292.06,393.48c-0.18,1.15-0.04,2.35-0.04,3.53h0.06c0,1.57-0.08,3.15,0.03,4.71c0.07,0.95-0.62,2.45,1,2.63
			c1.38,0.16,2.92,0.53,4.12-0.83c2.93-3.34,3.32-5.84,1.39-9.93c-0.21-0.44-0.46-0.87-0.62-1.33c-0.9-2.53-3.06-2.24-4.93-1.95
			C291.17,390.6,292.23,392.37,292.06,393.48z"/>
		<path class="st0" d="M242.46,302.95c-1.17,0.21-2.38,0.2-3.57,0.2c-6.86-0.02-13.73-0.08-20.59-0.11c-0.79-0.01-1.6,0-2.38,0.12
			c-1.34,0.2-2.15,0.99-2.23,2.38c-0.05,0.89-0.07,1.79-0.07,2.68c-0.01,8.36,0,16.71,0,25.07c0,8.75-0.02,17.51,0.01,26.26
			c0.01,3.39,0.46,3.85,3.75,3.86c9.55,0.03,19.1,0.02,28.65,0.01c1.29,0,2.55-0.07,3.81-0.52c6.76-2.43,10.6-7.6,10.68-14.93
			c0.1-9.95,0.18-19.9-0.02-29.84C260.29,307.86,251.37,301.34,242.46,302.95z M245,355.29c-6.56,0.48-13.12,0.22-19.67,0.28
			c-2.83,0.03-3.39-0.65-3.41-3.66c-0.05-6.16-0.01-12.33-0.01-18.49c0,0-0.01,0-0.01,0c0-5.87-0.02-11.73,0.01-17.6
			c0.02-4.04,0.89-4.9,4.92-4.92c5.37-0.02,10.74,0.01,16.11-0.01c1.51-0.01,2.95,0.25,4.37,0.78c3.12,1.17,4.93,3.32,4.94,6.71
			c0.04,9.74-0.02,19.49,0.04,29.23C252.3,351.08,249.04,354.99,245,355.29z"/>
		<path class="st0" d="M198.5,308.26c0-0.89-0.01-1.79-0.1-2.68c-0.1-0.94-0.57-1.68-1.43-2.13c-3.22-1.7-6.57,0.24-6.69,3.88
			c-0.02,0.79-0.01,1.59-0.01,2.38v23.25c0,8.25-0.01,16.49,0,24.74c0,0.99-0.04,2.01,0.14,2.97c0.34,1.87,2.21,3.23,4.15,3.16
			c2.12-0.07,3.58-1.33,3.86-3.41c0.12-0.88,0.08-1.78,0.08-2.68C198.5,341.26,198.5,324.76,198.5,308.26z"/>
		<path class="st1" d="M202.6,389.6c-0.6,3.83-1.36,7.64-2.06,11.46c-1.23-2.65-1.84-5.29-2.49-7.93c-0.21-0.87-0.54-1.96-1.48-2
			c-1.16-0.05-1.46,1.12-1.69,2.08c-0.63,2.54-1.23,5.08-1.86,7.73c-1.05-0.67-0.86-1.55-0.97-2.29c-0.49-3.21-0.97-6.42-1.36-9.65
			c-0.17-1.38-0.82-1.88-2.16-1.71c-1.22,0.16-1.4,0.97-1.23,1.92c1,5.52,2.01,11.03,3.07,16.53c0.2,1.04,0.79,1.71,2.04,1.72
			c1.21,0.01,1.7-0.47,2.03-1.62c0.62-2.14,0.79-4.44,2.19-6.89c0.52,2.33,0.9,4.21,1.38,6.08c0.27,1.06,0.14,2.39,1.94,2.44
			c1.8,0.05,2.42-0.85,2.75-2.38c1.05-5.01,2.15-10.01,3.21-15.01c0.24-1.14,0.74-2.42-1.09-2.75
			C202.93,387,202.81,388.2,202.6,389.6z"/>
		<path class="st1" d="M242.43,406.91c1.62,1.8,5.6,0.36,8.53,0.52c0.29,0.02,0.59,0.01,0.88-0.04c4.56-0.7,6.54-5.55,3.62-9.11
			c-0.74-0.89-1.08-1.27-0.14-2.27c1.57-1.69,1.56-3.78,0.63-5.8c-0.97-2.1-2.79-2.93-5.05-2.9c-0.88,0.01-1.77,0-2.66,0
			c-6.54,0-6.54,0-6.54,6.39v4.35C242.04,400.54,240.36,404.61,242.43,406.91z M244.87,392.87c-0.04-1.18-0.47-2.76,1.69-2.61
			c0.79,0.05,1.58,0.01,2.36,0.01v-0.02c0.59,0,1.19,0.02,1.78,0c1.68-0.08,2.69,0.71,2.73,2.38c0.04,1.69-0.84,2.84-2.61,2.97
			c-1.47,0.11-2.96,0.04-4.44,0.05C244.18,395.66,244.92,393.98,244.87,392.87z M244.91,399.8c0.65-2.12,2.46-0.39,3.23-1.1
			c2.51,0.17,5.46-0.39,5.39,2.93c-0.07,3.24-2.99,2.75-5.2,2.8C244.97,404.52,243.91,403.06,244.91,399.8z"/>
		<path class="st1" d="M424.56,407.35c1.43-0.3,0.96-1.54,0.97-2.43c0.04-5.03,0.04-10.05,0-15.08c-0.01-1.08,0.44-2.5-1.53-2.53
			c-2.11-0.03-1.72,1.47-1.73,2.67c-0.04,3.24-0.01,6.49-0.01,9.74c-0.21,0.05-0.43,0.11-0.64,0.16c-2.44-3.78-4.94-7.53-7.3-11.36
			c-0.8-1.29-1.87-1.3-3.05-1.14c-1.55,0.21-0.97,1.5-0.98,2.35c-0.06,5.12-0.05,10.25-0.04,15.38c0,1.13-0.36,2.44,1.61,2.38
			c1.93-0.06,1.57-1.37,1.58-2.49c0.03-3.48,0.01-6.96,0.01-10.44c3.16,3.75,5.67,7.62,8.1,11.53
			C422.29,407.29,423.31,407.62,424.56,407.35z"/>
		<path class="st1" d="M287.68,404.63c-0.79,0.15-0.98,0.9-0.87,1.65c0.15,1.05,0.96,1.12,1.78,1.14c1.28,0.02,2.57,0,4.3,0
			c1.64-0.29,3.88,0.71,5.84-0.84c5.3-4.21,5.44-13.84,0.22-18.11c-0.7-0.57-1.46-1.09-2.37-1.1c-2.76-0.04-5.53-0.02-8.29-0.01
			c-0.62,0-1.22,0.17-1.36,0.88c-0.11,0.57-0.2,1.37,0.48,1.53c2.11,0.5,1.67,2.11,1.68,3.53c0.02,2.86,0.04,5.73,0.02,8.59
			C289.1,403.01,289.42,404.3,287.68,404.63z M293.07,390.3c1.87-0.29,4.03-0.58,4.93,1.95c0.16,0.46,0.41,0.89,0.62,1.33
			c1.93,4.09,1.55,6.59-1.39,9.93c-1.2,1.36-2.74,0.99-4.12,0.83c-1.62-0.18-0.93-1.68-1-2.63c-0.11-1.56-0.03-3.14-0.03-4.71h-0.06
			c0-1.18-0.14-2.38,0.04-3.53C292.23,392.37,291.17,390.6,293.07,390.3z"/>
		<path class="st1" d="M396.11,390.97c1.44,0.67,2.13,0.16,2.66-0.71c0.71-1.16-0.06-2.1-1.11-2.65
			c-4.79-2.53-12.49,0.53-13.94,5.67c-0.5,1.75-0.29,3.71-0.4,5.57c0.04,0,0.09,0,0.13,0.01c0,1.08-0.01,2.17,0,3.25
			c0.04,3.52,1.35,5.05,4.53,5.33c7.61,0.67,10.71-0.52,11.36-4.35c0.92-5.42-0.1-6.54-5.6-6.18c-0.99,0.06-2.03-0.1-1.97,1.45
			c0.05,1.56,1.12,1.34,2.08,1.32c1.23-0.03,2.37-0.14,2.29,1.73c-0.07,1.66-0.31,3-2.32,3.04c-7.86,0.17-7.46,0.21-7.31-6.49
			c0.01-0.39,0.03-0.79,0.01-1.18C386.18,390.58,391.52,388.83,396.11,390.97z"/>
		<path class="st1" d="M350.63,391.68c0.6,0.86,1.28,1.23,2.24,0.78c0.95-0.45,1.2-1.29,0.92-2.24c-0.49-1.65-1.54-2.76-3.34-2.88
			c-1.28-0.08-2.56-0.02-3.85-0.02c0-0.01,0-0.02,0-0.03c-0.49,0-0.99,0.02-1.48,0c-2.54-0.12-5.15-0.18-6.15,2.8
			c-0.92,2.75,1.32,4.07,2.99,5.55c2.44,2.16,4.94,4.23,7.39,6.38c0.62,0.54,1.62,1.12,0.71,2.15c-0.67,0.75-7.66,0.3-8.16-0.63
			c-0.74-1.37-1.62-1.79-2.77-0.79c-1.15,0.99-0.59,2.2,0.14,3.18c0.81,1.08,1.95,1.59,3.35,1.56c1.87-0.05,3.75-0.08,5.62-0.02
			c2.31,0.07,4.41-0.3,5.36-2.74c0.96-2.48-0.78-3.84-2.39-5.18c-2.65-2.21-5.34-4.38-7.96-6.62c-0.68-0.59-1.76-1.34-0.64-2.38
			C343.68,389.55,349.76,390.44,350.63,391.68z"/>
		<path class="st1" d="M217.7,407.42c3.75-0.03,7.49,0,11.24,0c1.15,0,1.97-0.53,1.92-1.73c-0.05-1.18-1.03-1.26-1.96-1.26
			c-2.56,0.01-5.13,0.02-7.69,0.01c-0.76-0.01-1.53,0.1-1.85-0.99c-0.98-3.33,0.24-4.97,3.7-4.78c0.58,0.03,1.2,0.06,1.74,0.25
			c1.6,0.54,2.38-0.45,2.48-1.66c0.1-1.27-0.97-1.77-2.24-1.71c-1.28,0.06-2.57-0.02-3.84,0.08c-2.07,0.16-1.88-1.23-1.81-2.52
			c0.06-1.26-0.53-2.94,1.8-2.86c2.46,0.09,4.93,0.01,7.39,0.07c1.2,0.03,2.23-0.04,2.22-1.59c-0.01-1.42-0.99-1.45-2.05-1.45
			c-3.55,0.02-7.1,0.06-10.65-0.01c-1.42-0.03-1.89,0.51-1.86,1.89c0.07,2.76,0.02,5.52,0.02,8.28c-0.01,0-0.02,0-0.02,0
			c0,2.66,0.01,5.32-0.01,7.98C216.24,406.48,216.22,407.44,217.7,407.42z"/>
		<path class="st1" d="M319.39,390.23c2.36,0.18,4.74,0.03,7.11,0.06c1.13,0.02,1.99-0.21,1.95-1.58c-0.03-1.21-0.86-1.4-1.83-1.4
			c-3.56,0.01-7.11,0.05-10.67,0c-1.39-0.02-1.95,0.49-1.92,1.89c0.06,2.76,0.02,5.53,0.02,8.29c-0.01,0-0.02,0-0.03,0
			c0,2.67,0,5.33,0,8c0,0.89-0.09,1.89,1.24,1.89c3.85,0,7.71,0.01,11.56-0.04c1.04-0.01,1.65-0.65,1.58-1.73
			c-0.07-1.06-0.9-1.18-1.72-1.18c-2.37-0.01-4.75-0.09-7.11,0.04c-1.88,0.1-2.51-0.45-2.57-2.46c-0.08-2.66,0.63-3.88,3.42-3.38
			c0.67,0.12,1.4-0.02,2.06,0.12c1.21,0.24,2.04-0.22,2.16-1.37c0.13-1.39-0.85-1.86-2.1-1.84c-1.09,0.01-2.19-0.08-3.26,0.08
			c-2.38,0.34-2.15-1.19-2.21-2.73C317,391.17,317.21,390.07,319.39,390.23z"/>
		<path class="st1" d="M366.75,397.16c0,2.75,0,5.5,0,8.24c0,1.02-0.02,2,1.47,1.99c1.42,0,1.53-0.87,1.53-1.95
			c-0.01-5.4-0.01-10.8-0.01-16.19c0-1.05-0.05-1.93-1.52-1.93c-1.45-0.01-1.54,0.82-1.54,1.89c0.02,2.65,0.01,5.3,0.01,7.95
			C366.71,397.16,366.73,397.16,366.75,397.16z"/>
		<path class="st1" d="M545.29,381.54c2.92,0.01,5.15-0.83,7.12-2.95c2.65-2.84,5.45-5.53,8.27-8.2c1.25-1.19,1.79-2.48,1.78-4.21
			c-0.04-21.9-0.04-43.8,0-65.71c0-2.04-0.62-3.65-2.07-5.05c-2.5-2.42-5.09-4.78-7.35-7.42c-2.2-2.56-4.71-3.54-8.08-3.54
			c-79.05,0.07-158.11,0.05-237.16,0.05v0.02c-52.17,0-104.34,0-156.51,0c-26.68,0-53.37,0.06-80.05-0.04
			c-3.45-0.01-6.12,0.8-8.42,3.45c-2.14,2.48-4.53,4.77-6.99,6.93c-2.3,2.02-3.07,4.36-3.05,7.38c0.1,16.13,0.05,32.26,0.05,48.38
			c0,4.98,0.02,9.96-0.01,14.93c-0.01,1.56,0.29,2.97,1.45,4.09c3.43,3.32,6.87,6.64,10.31,9.95c1.28,1.24,2.84,1.8,4.61,1.81
			c1.09,0.01,2.19,0.02,3.28,0.02c118.38,0.01,236.76,0.02,355.15,0.04C466.84,381.49,506.07,381.47,545.29,381.54z M502.14,307.1
			c0.2-2.66,0.76-3.47,2.73-4.04c2.46-0.71,4.09-0.25,5.54,1.69c0.95,1.28,1.81,2.62,2.67,3.96c7.23,11.32,14.45,22.64,21.68,33.96
			c0.45,0.71,0.72,1.69,1.85,1.79c1.08-0.93,0.7-2.21,0.7-3.34c0.04-10.45,0.03-20.9,0.04-31.35c0-1.09-0.02-2.2,0.12-3.28
			c0.28-2.26,1.87-3.73,3.92-3.75c2.13-0.03,3.79,1.59,4.04,3.97c0.06,0.59,0.04,1.19,0.04,1.79c0,16.62-0.01,33.24-0.02,49.86
			c0,0.1,0.01,0.2,0,0.3c-0.17,1.71,0.46,3.78-1.8,4.6c-2.41,0.88-5.51,0.01-6.91-2.1c-3.75-5.63-7.39-11.34-11.06-17.02
			c-3.23-5.01-6.45-10.03-9.67-15.05c-1.13-1.76-2.22-3.54-3.36-5.29c-0.32-0.49-0.72-1.11-1.37-0.98
			c-0.83,0.17-0.83,0.99-0.91,1.68c-0.02,0.2-0.03,0.4-0.01,0.6c0.39,8.16-0.39,16.31-0.48,24.46c-0.03,3.28,0.75,6.52,0.52,9.82
			c-0.14,2.03-0.99,3.38-2.91,4.05c-2.54,0.88-4.91-0.51-5.3-3.17c-0.11-0.78-0.08-1.59-0.08-2.38
			c-0.01-16.12-0.01-32.25-0.01-48.37C502.09,308.69,502.08,307.89,502.14,307.1z M452.69,306.15c0.25-1.96,1.06-2.75,3.02-3.14
			c0.88-0.17,1.78-0.33,2.66-0.31c6.26,0.13,12.52-0.25,18.79,0.35c4.24,0.4,8.55,0.1,12.83,0.13c0.9,0.01,1.81-0.04,2.68,0.1
			c2.17,0.34,3.48,2.05,3.34,4.23c-0.12,1.91-1.7,3.44-3.78,3.53c-1.09,0.04-2.18-0.14-3.28-0.15c-7.67-0.01-15.33-0.01-23-0.01
			c-0.7,0-1.4-0.03-2.09,0.08c-1.59,0.26-2.6,1.2-2.62,2.78c-0.05,4.18-0.03,8.36,0.1,12.54c0.06,2.04,0.65,2.55,2.84,2.58
			c4.68,0.07,9.36,0.03,14.04,0.03c1.19,0,2.38-0.03,3.49,0.58c1.72,0.93,2.5,2.32,2.26,4.15c-0.26,1.94-1.51,3.19-3.54,3.45
			c-0.79,0.1-1.59,0.07-2.39,0.07c-4.28,0-8.56-0.04-12.84-0.01c-3.13,0.02-3.86,0.72-3.91,3.89c-0.06,3.78-0.05,7.57,0.01,11.35
			c0.04,2.39,0.58,2.91,3,3.15c0.99,0.1,1.99,0.07,2.98,0.07c7.67,0,15.33,0,23,0.01c0.89,0,1.8-0.03,2.68,0.11
			c1.93,0.32,3.02,1.74,3.04,3.82c0.02,1.99-0.88,3.27-2.78,3.69c-0.96,0.21-1.98,0.2-2.97,0.21c-5.48,0.02-10.95,0.01-16.43,0.01
			c0,0,0-0.01,0-0.01c-5.38,0-10.75,0-16.13,0c-0.8,0-1.6,0.03-2.39-0.06c-1.86-0.23-2.56-1.11-2.45-3.03
			c0.51-8.55,0.4-17.12,0.1-25.66c-0.18-4.97,0.47-9.9,0.16-14.85c-0.21-3.27,0.18-6.55-0.48-9.81
			C452.41,308.78,452.53,307.43,452.69,306.15z M119.56,354.08c-0.54,5.39-4.44,9.15-9.84,9.34c-2.48,0.09-4.98,0.04-7.46,0.04
			c-2.49,0.01-4.98,0-7.46,0v-0.02c-4.98,0-9.95-0.07-14.93,0.02c-4.64,0.09-8.99-4.78-9.13-9.36c-0.04-1.23,0.28-2.37,0.82-3.45
			c0.84-1.68,2.3-1.99,4.02-1.91c1.71,0.08,2.75,0.92,3.35,2.47c1.61,4.18,1.82,4.36,6.14,4.38c6.97,0.03,13.93,0.01,20.9,0.01
			c0.5,0,1,0.01,1.49-0.05c2.9-0.32,4.2-2.56,3.24-5.36c-0.83-2.44-2.65-3.89-4.7-5.19c-5.54-3.51-11.09-7.03-16.62-10.56
			c-3.69-2.35-7.39-4.69-11.04-7.11c-4.21-2.8-6.85-6.67-7.22-11.78c-0.57-7.99,5.44-13.19,12.38-12.69
			c3.39,0.24,6.75,0.08,10.11,0.15c5.84,0.11,11.67-1,17.52,0.17c5.9,1.18,8.59,5.37,8.42,10.24c-0.08,2.22-1.28,3.71-3.29,4.56
			c-2.46,1.03-4.56-0.02-5.28-2.61c-1.25-4.48-1.25-4.49-5.79-4.49c-6.47-0.01-12.93,0-19.4,0.01c-0.79,0-1.6-0.05-2.38,0.07
			c-3.1,0.48-4.44,3.27-2.92,6.01c0.8,1.43,2.04,2.41,3.39,3.29c7,4.55,14.02,9.08,20.98,13.7c3.15,2.08,6.44,3.98,9.24,6.55
			C118.08,344.16,120.11,348.6,119.56,354.08z M175.93,314.87c-0.13,3.97-0.09,7.96-0.03,11.94c0.1,6.33-5.21,11.58-11.57,11.56
			c-6.76-0.02-13.53-0.01-20.29,0c-4.53,0-4.73,0.2-4.75,4.68c-0.01,5.37,0.05,10.74-0.04,16.11c-0.06,3.22-1.85,4.78-4.93,4.58
			c-1.79-0.12-2.97-1.13-3.23-2.91c-0.13-0.88-0.09-1.78-0.09-2.68c-0.01-16.71-0.01-33.42-0.01-50.13c0-0.4-0.01-0.8,0.01-1.2
			c0.09-3.02,0.69-3.73,3.69-3.77c5.17-0.07,10.34-0.02,15.52-0.02v0.12c4.58,0,9.16,0.15,13.73-0.03
			C172.08,302.79,176.13,308.79,175.93,314.87z M198.41,360.43c-0.28,2.09-1.75,3.34-3.86,3.41c-1.93,0.07-3.8-1.29-4.15-3.16
			c-0.18-0.97-0.13-1.98-0.14-2.97c-0.01-8.25,0-16.49,0-24.74v-23.25c0-0.8-0.02-1.59,0.01-2.38c0.12-3.64,3.47-5.58,6.69-3.88
			c0.86,0.45,1.34,1.19,1.43,2.13c0.09,0.88,0.1,1.78,0.1,2.68c0,16.5,0,32.99,0,49.49C198.5,358.65,198.53,359.55,198.41,360.43z
			 M260.52,347.97c-0.07,7.33-3.92,12.5-10.68,14.93c-1.26,0.45-2.53,0.52-3.81,0.52c-9.55,0.01-19.1,0.02-28.65-0.01
			c-3.29-0.01-3.74-0.47-3.75-3.86c-0.03-8.75-0.01-17.51-0.01-26.26c0-8.35,0-16.71,0-25.07c0-0.89,0.01-1.79,0.07-2.68
			c0.08-1.4,0.89-2.18,2.23-2.38c0.78-0.12,1.58-0.13,2.38-0.12c6.86,0.03,13.73,0.08,20.59,0.11c1.19,0,2.4,0.01,3.57-0.2
			c8.91-1.6,17.83,4.91,18.04,15.18C260.7,328.07,260.62,338.02,260.52,347.97z M282.26,325.51c0.05,2.84,0.52,3.31,3.33,3.35
			c4.38,0.05,8.76,0.02,13.14,0.03c0.89,0,1.8-0.03,2.68,0.08c2.61,0.33,4.14,1.98,4.09,4.29c-0.06,2.38-1.52,3.8-4.36,3.87
			c-4.18,0.1-8.36,0.04-12.54,0.05c-1.2,0.01-2.4-0.06-3.58,0.04c-1.78,0.16-2.64,0.85-2.68,2.59c-0.11,4.38-0.12,8.76-0.01,13.13
			c0.04,1.8,0.81,2.39,2.65,2.59c0.89,0.1,1.79,0.06,2.69,0.06c8.06,0,16.13,0,24.2,0.01c0.99,0,2.01-0.03,2.97,0.16
			c2.07,0.41,3.18,1.97,3.09,4.13c-0.08,2.04-1.19,3.2-3.37,3.46c-0.89,0.1-1.79,0.08-2.69,0.08c-10.95,0.01-21.9,0.01-32.86,0
			c-0.79,0-1.6,0.03-2.38-0.06c-1.76-0.2-2.44-0.87-2.64-2.65c-0.1-0.88-0.07-1.79-0.07-2.68c0-8.26,0-16.53,0-24.79c0,0,0,0-0.01,0
			c0-8.16,0-16.33,0-24.49c0-0.9-0.03-1.8,0.07-2.69c0.23-2.09,0.87-2.72,2.97-3.08c0.49-0.08,1-0.22,1.48-0.17
			c10.24,0.98,20.47-0.74,30.72-0.22c1.9,0.1,3.78,0.2,5.6,0.73c2.46,0.71,3.54,2.39,3.09,4.67c-0.38,1.93-2.24,3.28-4.49,3.11
			c-6.56-0.51-13.13-0.12-19.7-0.24c-2.39-0.04-4.78-0.04-7.17,0.02c-3.05,0.08-4.17,1.15-4.23,4.15
			C282.19,318.55,282.2,322.03,282.26,325.51z M372.44,363.42c-2.52,0.64-4.73,0.11-6.48-1.89c-4.98-5.68-9.94-11.38-14.91-17.07
			c-2.03-2.33-4.03-4.67-6.08-6.98c-0.52-0.59-1.08-1.21-1.75-1.6c-2.65-1.55-5.25-0.07-5.37,3.16c-0.14,3.87-0.04,7.76-0.05,11.64
			c-0.01,2.79,0.04,5.57-0.03,8.36c-0.09,3.14-1.46,4.48-4.34,4.44c-2.73-0.04-3.96-1.32-3.97-4.43
			c-0.04-8.75-0.02-17.51-0.02-26.26c0-8.36-0.01-16.72,0-25.07c0.01-3.99,0.89-4.98,4.88-5.01c8.86-0.07,17.71-0.06,26.57,0.01
			c1.77,0.01,3.57,0.32,5.3,0.72c4.65,1.08,7.37,4.16,7.99,8.88c0.6,4.55,0.84,9.12,0.07,13.67c-0.98,5.73-5.21,9.29-10.96,9.41
			c-2.19,0.04-4.38-0.02-6.56,0.08c-1.32,0.07-1.58,0.63-0.88,1.74c0.53,0.83,1.19,1.59,1.84,2.34
			c5.42,6.22,10.86,12.43,16.28,18.65C376.11,360.66,375.55,362.62,372.44,363.42z M416.97,340.22c-2.52,1.26-5.64,0.47-7.68-2.16
			c-3.05-3.93-5.95-7.97-8.97-11.93c-0.84-1.1-1.81-2.11-2.8-3.08c-0.7-0.68-1.33-0.38-1.53,0.49c-0.18,0.76-0.21,1.58-0.21,2.37
			c-0.02,7.96-0.08,15.91-0.01,23.87c0.03,3.18,0.62,6.34,0.39,9.53c-0.21,2.93-2.88,4.96-5.57,4.23c-1.73-0.47-2.5-1.36-2.6-3.16
			c-0.06-0.99,0-1.99,0-2.99c-0.01-15.03-0.01-30.06-0.02-45.08c0-1.59,0.03-3.16-0.29-4.75c-0.42-2.08,0.17-3.33,1.61-4.09
			c1.68-0.89,3.95-0.63,5.24,0.76c1.01,1.09,1.89,2.31,2.78,3.51c5.02,6.8,10.03,13.62,15.05,20.42c1.56,2.12,2.22,2.18,3.8,0.1
			c4.5-5.94,8.94-11.95,13.4-17.93c1.31-1.75,2.62-3.51,3.94-5.25c1.14-1.52,2.48-2.62,4.56-2.01c1.88,0.55,2.86,1.89,2.89,4.36
			c0.07,5.87,0.04,11.74,0.04,17.61c0,2.79,0,5.57,0,8.36c0,7.86,0,15.72,0,23.59c0,1,0.04,2-0.09,2.98
			c-0.41,3.23-3.7,4.8-6.51,3.14c-0.92-0.55-1.41-1.41-1.52-2.44c-0.11-0.99-0.12-1.99-0.12-2.98c-0.02-10.55-0.01-21.1-0.05-31.65
			c0-1.13,0.5-2.79-0.84-3.19c-1.29-0.39-1.8,1.28-2.53,2.15c-3.25,3.9-6.19,8.04-9.14,12.17
			C419.3,338.36,418.35,339.53,416.97,340.22z"/>
		<path class="st1" d="M200.5,180.94c-0.15-0.01-0.3-0.03-0.45-0.05c0,0,0,0,0,0c0.07,0.48,0.13,0.97,0.2,1.44c0,0,0,0,0,0
			C200.33,181.87,200.41,181.4,200.5,180.94z"/>
		<path class="st1" d="M251.52,153.92c0.17-0.54,0.29-1.1,0.48-1.63c0,0,0-0.01,0-0.01c-0.15,0.28-0.3,0.55-0.46,0.83
			c-0.79,1.39-0.79,2.15-0.69,2.72c0,0.01,0,0.03,0.01,0.04c0,0,0,0,0,0C251.09,155.22,251.31,154.57,251.52,153.92z"/>
		<path class="st1" d="M414.99,231.83c0.04-0.7,0.08-1.4,0.13-2.09c-0.26,0.38-0.53,0.75-0.8,1.11
			C414.53,231.18,414.76,231.51,414.99,231.83z"/>
		<path class="st1" d="M331.33,145.58c5.56,2.72,11.35,4.22,17.55,4.12c1.56-0.03,3.15-0.16,4.67,0.17
			c0.28,1.09-0.44,1.62-0.88,2.22c-2.04,2.78-4.13,5.53-6.19,8.29c0.16,0.06,0.32,0.11,0.49,0.17c2.83,1.03,4.73,3.19,5.33,6.01
			c0.76-0.78,1.43-1.65,2.1-2.51c2.75-3.54,5.5-7.07,8.26-10.6c0.37-0.47,0.71-0.97,1.13-1.39c0.25-0.26,0.47-0.44,0.66-0.55
			c-0.96-3.66-1.5-7.44-1.62-11.29c-0.98,0.77-2.11,1.23-3.45,1.46c-10.51,1.8-20.3-0.1-29.4-5.38c0.63,2.6,0.44,5.37-0.59,8.28
			C330.03,144.92,330.68,145.26,331.33,145.58z"/>
		<path class="st1" d="M414.34,242.66c0.06-1.2,0.13-2.39,0.2-3.58c-0.37,0-0.74,0-1.1,0c-1.2,0-2.4-0.06-3.58,0.06
			c-0.29,0.03-0.57,0.07-0.83,0.14c0.39,2.42,0.88,4.81,1.4,7.33c0.03,0.14,0.06,0.28,0.09,0.42c1.2,0.07,2.41,0.07,3.62,0.07
			c0.04-0.94,0.08-1.88,0.13-2.81C414.28,243.75,414.31,243.21,414.34,242.66z"/>
		<path class="st1" d="M16.05,323.84c0.65,0.21,1.37,0.25,2.06,0.25c7.77,0.02,15.53,0.04,23.3,0.01c3.15-0.02,4.07-0.99,4.2-4.09
			c0.08-1.99,0.02-3.97,0.23-5.96c0.53-4.95,0.65-9.92-0.05-14.87c-0.35-2.45,0.19-4.51,1.96-6.27c4.09-4.07,8.16-8.17,12.24-12.26
			c0.85-0.85,1.82-1.51,2.86-2.12c2.11-1.26,4.39-1.1,6.67-1.1c101.16,0,202.31,0.01,303.47,0.01c58.24,0,116.49,0.01,174.73-0.05
			c3.09,0,5.58,0.67,7.74,2.96c3.68,3.91,7.49,7.72,11.32,11.48c1.97,1.93,2.9,4.08,2.85,6.9c-0.13,6.77-0.06,13.54,0,20.31
			c0.04,4.04,1.15,5.12,5.2,5.13c7.57,0.03,15.13,0.01,22.7,0.01c0.59,0,1.2,0.02,1.79-0.07c2.86-0.49,4.04-3.23,2.43-5.6
			c-1.09-1.61-2.61-2.33-4.57-2.31c-4.98,0.04-9.95,0.03-14.93,0.01c-3.44-0.02-3.77-0.32-3.79-3.74
			c-0.03-5.88-0.06-11.75,0.03-17.62c0.03-2.27-0.73-4-2.37-5.53c-4.44-4.14-8.68-8.48-12.85-12.9c-1.98-2.09-4.14-4.02-6.3-5.93
			c-1.28-1.13-2.75-2.04-4.58-1.82c-5.76,0.68-11.53,0.17-17.3,0.3c-2.37,0.05-2.64-0.43-1.43-2.32c3.08-4.78,6.41-9.34,11.13-12.73
			c3-2.16,6.11-4.09,9.42-5.73c2.41-1.19,2.47-1.8,0.44-3.6c-2.16-1.91-4.44-3.68-6.59-5.61c-7.44-6.69-12.75-14.92-17.27-23.77
			c-8.24-16.12-12.44-33.13-11.28-51.26c0.63-9.78,3.25-19.02,9.22-27.04c0.71-0.96,1.54-1.84,2.22-2.81
			c1.17-1.66,0.83-2.53-1.11-2.93c-0.68-0.14-1.39-0.09-2.08-0.16c-2.97-0.3-5.95-0.51-8.9-0.95c-8.25-1.24-15.98-4.15-23.52-7.56
			c-19.76-8.94-34.92-22.68-44.2-42.53c-5.69-12.18-7.15-24.74-3.7-37.8c0.2-0.77,0.32-1.57,0.56-2.32c0.4-1.25,0.35-2.38-0.8-3.2
			c-1.34-0.96-2.43-0.27-3.47,0.61c-0.99,0.83-2.01,1.63-3,2.47c-10.91,9.31-23.5,13.88-37.87,13.67
			c-12.21-0.19-24.18-1.87-35.96-5.07c-16.08-4.37-30.5-12.02-43.73-22.04c-1.12-0.85-2.04-1.89-2.88-3.01
			c-4.35-5.82-7.37-12.26-9.15-19.3c-0.19-0.77-0.34-1.57-0.66-2.28c-0.36-0.82-0.88-1.64-1.93-1.63c-1.06,0.01-1.55,0.82-1.86,1.68
			c-0.33,0.94-0.57,1.91-0.82,2.87c-2.24,8.83-6.86,16.24-13.28,22.64c-8.85,8.82-19.32,14.98-31.13,18.85
			c-16.03,5.25-32.49,7.62-49.37,7.32c-12.17-0.22-23.07-3.88-32.58-11.52c-2.02-1.62-3.99-3.29-6.01-4.92
			c-0.9-0.73-1.9-1.12-3.03-0.49c-1.26,0.7-1.42,1.86-1.16,3.11c0.34,1.66,0.77,3.29,1.15,4.94c1.63,7.16,2.28,14.41,0.39,21.57
			c-6.19,23.45-19.96,41.18-41.22,52.81c-12.95,7.09-26.74,11.83-41.73,12.24c-2.3,0.06-2.74,1.09-1.47,3.06
			c0.16,0.25,0.38,0.46,0.57,0.69c3.51,4.17,5.95,8.94,7.64,14.09c3.94,12.01,4.26,24.23,1.97,36.56
			c-2.45,13.15-7.32,25.41-14.01,36.96c-4.38,7.56-9.94,14.14-16.82,19.6c-1.68,1.33-3.42,2.67-4.8,4.59
			c2.28,1.68,4.73,2.77,7.05,4.07c6.97,3.88,12.05,9.69,16.51,16.12c0.11,0.16,0.22,0.33,0.31,0.51c0.5,0.93,0.33,1.54-0.82,1.62
			c-0.69,0.05-1.39,0.04-2.09,0.04c-5.77,0.01-11.55,0.16-17.32-0.05c-3.17-0.12-5.46,0.99-7.64,3.2
			c-5.72,5.82-11.6,11.49-17.45,17.18c-1.24,1.2-1.72,2.6-1.7,4.28c0.03,3.58,0.01,7.17,0,10.75c0,3.09,0.04,6.17-0.04,9.26
			c-0.06,2-0.54,2.42-2.5,2.59c-0.79,0.07-1.59,0.04-2.39,0.04c-4.48,0-8.96,0.01-13.44,0c-1.63,0-3.18,0.25-4.5,1.29
			c-1.08,0.85-1.76,1.92-1.5,3.36C13.69,322.39,14.63,323.38,16.05,323.84z M313.49,27.35c0.7,0.05,0.9,0.41,1.13,0.71
			c6.01,7.79,13.61,13.61,22.29,18.11c15.36,7.96,31.64,13.01,48.82,14.93c11.95,1.34,23.84,0.96,35.52-2.27
			c0.63-0.17,1.28-0.66,1.99-0.06c0.08,1.11-0.76,1.78-1.32,2.55c-6.44,8.73-12.91,17.43-19.34,26.17c-0.92,1.26-2.08,2.1-3.46,2.73
			c-5.95,2.7-12.22,4.31-18.71,4.81c-15.56,1.19-30.35-1.66-44.06-9.25c-8.57-4.74-15.93-10.86-21.03-19.41
			c-1.41-2.37-2.19-4.77-2.16-7.59c0.11-9.35,0.01-18.71,0.02-28.07C313.2,29.63,313,28.52,313.49,27.35z M193.96,58.69
			c0.33-0.36,0.72-0.18,1.08-0.06c9.44,2.93,19.16,3.73,28.94,3.09c18.09-1.18,35.77-4.44,52.36-12.09
			c10.76-4.97,19.84-12.12,26.57-22.03c0.21-0.32,0.48-0.59,0.72-0.88c0.97,0.44,0.69,1.23,0.7,1.87
			c0.02,10.56-0.01,21.11,0.02,31.66c0.01,1.76-0.49,3.3-1.39,4.79c-5.29,8.75-12.67,15.3-21.49,20.25
			c-13.84,7.76-28.74,10.98-44.55,9.79c-6.5-0.49-12.73-2.22-18.69-4.87c-1.03-0.46-1.87-1.09-2.55-1.99
			c-7.1-9.48-14.21-18.96-21.32-28.43C194.12,59.46,193.81,59.16,193.96,58.69z M78.81,250.53c-0.92-0.5-2.41-1-2.15-2.18
			c0.3-1.34,1.85-0.77,2.85-0.77c12.04-0.04,24.08,0.01,36.12-0.02c2.87-0.01,5.49,0.68,7.91,2.24c2.08,1.34,4.03,2.81,5.87,4.4
			c0,0,0.01,0.01,0.01,0.01c0-1.02,0.08-2.06,0.25-3.12c0.15-0.91,0.06-1.35-0.11-1.74c-1.46-3.13-1.71-6.3-1.84-9.28
			c-0.08-1.89-0.18-3.79-0.29-5.69c-1.21,0.95-2.47,1.85-3.78,2.7c-2.38,1.55-5.04,1.92-7.7,1.95c-10.65,0.11-21.29,0.08-31.94,0.09
			c-0.4,0-0.8-0.02-1.19-0.08c-0.77-0.12-1.03-0.59-0.65-1.26c0.29-0.51,0.71-0.96,1.08-1.43c13.21-16.66,20.93-35.59,23.1-56.71
			c1.18-11.54-0.3-22.84-4.28-33.77c-0.3-0.84-0.57-1.69-0.84-2.54c-0.03-0.08,0.03-0.19,0.09-0.52c1.21,0.04,2.01,0.7,2.87,1.15
			c10.08,5.21,20.13,10.46,30.23,15.63c1.64,0.84,2.87,1.95,3.87,3.42v0c0.41-0.2,0.83-0.4,1.24-0.6c0.97-0.47,1.94-0.94,2.91-1.41
			c2.53-1.21,5.06-2.6,7.29-3.83c0.15-0.08,0.31-0.17,0.48-0.25c-0.04-1.11-0.35-2.16-0.95-3.2c-0.78,0.04-1.57,0.06-2.36,0.07
			c-3.08,0.02-5.92-0.58-8.62-1.98c-9.35-4.87-18.7-9.75-28.05-14.63c-0.42-0.22-0.97-0.31-1.05-0.97c0.67-0.85,1.74-0.8,2.65-1.07
			c11.9-3.56,23.2-8.37,33.26-15.79c13.34-9.84,23.37-22.35,30.01-37.55c3.2-7.33,4.71-14.95,3.81-22.96
			c-0.1-0.88-0.39-1.75-0.51-2.63c-0.12-0.87-0.54-1.71-0.09-3.25c1.92,2.58,3.57,4.79,5.21,7.01c6.87,9.27,13.6,18.65,20.99,27.52
			c2.69,3.23,4.69,6.74,4.52,11.05c-0.15,4-0.98,7.9-2.55,11.6c-6.31,14.92-15.78,26.89-29.47,34.85h0c0,0,0,0,0,0
			c-0.31,1.81-1.01,3.64-2.09,5.47c-0.12,0.2-0.24,0.4-0.37,0.61l-0.13,0.21c-0.86,1.4-0.83,2.39-0.74,3.02
			c0.02,0.15,0.03,0.29,0.04,0.44c0.22,0.09,0.43,0.19,0.62,0.28c0.28,0.14,0.57,0.26,0.86,0.39c7.5-3.51,14.4-8.15,20.63-14.05
			c10.63-10.07,17.39-22.32,20.46-36.48c1.12,0.02,1.36,0.63,1.7,1.09c4.25,5.74,8.49,11.49,12.73,17.24c0,0,0,0,0,0
			c1.11-0.72,2.34-1.32,3.71-1.77c1.37-0.46,2.78-0.69,4.19-0.69c0.38,0,0.76,0.02,1.14,0.06c0,0,0,0,0-0.01
			c-4.12-5.6-8.23-11.2-12.35-16.8c-0.41-0.55-0.86-1.09-0.99-1.98c1.07-0.53,2.11-0.07,3.12,0.08c17.51,2.6,34.51,1.28,50.74-6.38
			c6.01-2.84,11.23-6.79,16.27-11.01c1.91-1.6,3.69-3.33,5.55-4.99c0.56-0.5,1-1.27,2.04-1c0.38,1.73,0.1,3.42,0.1,5.09
			c0.01,10.75-0.09,21.5,0.01,32.25c0.02,2.49-0.55,4.64-1.89,6.55c2.49-2.22,5.74-3.61,9.5-3.95c0.58-0.05,1.11-0.08,1.63-0.09
			c-0.2-0.91-0.29-1.86-0.28-2.87c0.12-11.25,0.05-22.5,0.07-33.75c0-0.87-0.21-1.79,0.56-3c3.23,2.94,6.3,5.75,9.59,8.32
			c12.98,10.15,27.7,15.37,44.17,15.9c7.29,0.23,14.51-0.02,21.68-1.4c0.56-0.11,1.15-0.4,1.75,0.05c0.22,1.14-0.67,1.8-1.23,2.56
			c-4.84,6.53-9.7,13.05-14.55,19.57c0.84-0.13,1.69-0.2,2.57-0.2c0.56,0,1.14,0.03,1.71,0.09c2.03,0.21,3.89,0.81,5.51,1.76
			c4.84-6.6,9.64-13.22,14.48-19.82c0.29-0.39,0.55-0.85,1.43-0.9c4.69,18.9,14.31,32.82,27.96,42.62
			c-0.02-0.52,0.01-1.08,0.12-1.66c-0.02-0.15-0.07-0.42-0.12-0.63l-0.01-0.07c-0.57-2.77-0.38-5.65,0.44-8.36
			c-3.55-3.25-6.83-6.94-9.84-11.09c-4.72-6.49-8.52-13.48-10.1-21.44c-1.89-9.49-1.64-9.72,3.73-16.72
			c8.05-10.51,15.91-21.16,23.85-31.74c0.76-1.01,1.36-2.18,2.77-2.85c0.7,1.06,0.23,1.83-0.04,2.52
			c-2.34,6.15-1.83,12.31-0.1,18.48c3.38,12.12,9.66,22.67,17.94,32.02c12.9,14.58,29.2,23.75,47.72,29.22
			c0.92,0.27,1.97,0.25,2.65,1.14c-0.46,1.07-1.54,1.27-2.36,1.71c-7.98,4.28-16.05,8.39-23.95,12.8
			c-4.76,2.65-9.74,3.37-14.98,2.71c-2.89-0.36-5.69-0.86-8.4-1.52c-0.05,0.41-0.07,0.82-0.07,1.24c0.59,0.15,1.15,0.38,1.72,0.62
			c2.41,1.03,5.07,1.62,7.89,2.23l0.5,0.11c1.67,0.37,3.87,0.88,6.06,1.65c2.51,0.87,4.34,2.5,5.31,4.66
			c0.76-1.1,1.69-1.97,2.93-2.61c10.41-5.42,20.8-10.89,31.2-16.34c0.59-0.31,1.17-0.69,2.03-0.64c0.05,1.33-0.54,2.4-0.88,3.51
			c-2.52,8.12-4.25,16.4-4.32,24.91c-0.09,9.79,1.16,19.43,4.21,28.81c4.11,12.62,10.37,24.08,18.08,34.82
			c0.79,1.1,2.49,2.29,1.92,3.46c-0.7,1.44-2.7,0.63-4.11,0.64c-8.36,0.06-16.74-0.33-25.07,0.11c-7.4,0.39-13.11-2.58-18.26-7.29
			c-0.24-0.22-0.47-0.43-0.7-0.65c-0.13,0.95-0.27,1.9-0.4,2.85l-0.19,1.41c-0.4,2.93-0.82,5.97-1.44,8.99
			c-0.45,2.18-1.19,4.4-2.2,6.6c0.28,2.24,0.47,5.5-0.69,8.87l-0.07,0.22c-0.17,0.51-0.39,1.16-0.75,1.85
			c0.65-0.88,1.33-1.73,2.04-2.55c3.4-3.93,7.38-7.23,11.72-10.08c1.78-1.17,3.72-1.83,5.89-1.82c12.62,0.03,25.25,0.02,37.87,0.07
			c0.97,0,2-0.16,2.96,0.42c0.01,0.26,0.11,0.57,0.03,0.82c-1.13,3.7-1.11,3.84-4.88,4.42c-2.99,0.46-5.07,2.19-6.93,4.29
			c-2.38,2.68-4.44,5.62-6.07,8.82c-0.85,1.66-1.98,2.54-3.96,2.53c-13.06-0.06-26.11-0.04-39.17-0.05l0,0.05h-15.52
			c-0.16,0.01-0.32,0.02-0.48,0.02c-3.76-0.01-7.52-0.02-11.28-0.02h-34.57l-0.05-0.05h0c-1.09-0.08-1.4-0.36-1.2-1.23v0
			c-2.04-2.1-2.84-4.59-3.48-6.59c-0.08-0.26-0.16-0.51-0.25-0.77c-0.3-0.89-0.48-1.78-0.56-2.66c-1.34,2.1-2.49,4.32-3.42,6.68
			c0,0.04,0.01,0.08,0.01,0.13l0.35,4.51h-6.23c-0.09,0-0.18,0-0.26,0c-63.32,0.01-126.65,0.02-189.97,0.02
			c-0.53,0-1.05-0.02-1.58-0.02c-0.17,0-0.34,0-0.51,0.01c-0.15,0.01-0.28,0-0.42-0.01h-0.04v0c-1.02-0.1-1.68-0.67-1.94-1.75
			c-1.73-7.11-6.19-12.54-10.83-17.88c0.01,0.23,0.01,0.47,0.02,0.71c0.07,1.75,0.06,4.08-0.57,6.62c-0.29,1.16-0.7,2.23-1.22,3.23
			c0,0,0,0,0,0.01c1.37,2.01,2.54,4.17,3.5,6.51c0.93,2.24,0.76,2.56-1.75,2.56c-14.93,0.03-29.86,0.02-44.79,0.04
			c-0.3,0-0.58-0.01-0.85-0.04c0,0,0,0-0.01,0h-14.03l0,0h0c-6.66,0.04-13.32,0.01-19.98,0.01v0.02c-6.37,0-12.74-0.09-19.1,0.04
			c-2.48,0.05-4.12-0.77-5.32-2.96C90.45,259.46,85.49,254.15,78.81,250.53z"/>
		<path class="st1" d="M203.59,247.04c0.02-0.66,0.12-1.34,0.3-2.02c0.58-2.18,0.81-4.13,0.69-5.95h-0.41
			c-1.43-0.01-2.85-0.01-4.28-0.01c0,0,0,0,0,0c-0.39,1.42-0.79,2.82-1.19,4.2c-0.35,1.19-0.5,2.43-0.55,3.78
			C200,247.04,201.8,247.05,203.59,247.04z"/>
		<path class="st1" d="M202.54,231.9c-0.21-0.5-0.42-1-0.62-1.51c0,0,0,0,0,0c0,0,0-0.01-0.01-0.01c-0.2,1.07-0.41,2.13-0.65,3.18
			c0,0,0-0.01,0.01-0.01C201.71,233.01,202.13,232.46,202.54,231.9z"/>
		<path class="st1" d="M252.36,151.6c0.27-0.25,0.65-0.19,0.97,0.11c0.51,0.47,0.93,1.03,1.36,1.58c1.87,2.36,3.74,4.73,5.62,7.09
			c1.59,0.68,3.21,1.37,4.81,2.11c0.62,0.29,1.14,0.53,1.6,0.77c1.95,0.97,3.56,2.3,4.81,3.97c0.76-0.75,1.19-1.72,1.2-2.95
			c0.01-1.48-0.64-2.67-1.53-3.79c-2.09-2.66-4.17-5.33-6.22-8.03c-0.52-0.68-1.31-1.26-1.14-2.67c12.64,0.21,23.3-4.34,33.01-11.68
			c-0.12-2.58,0.19-5.24,0.93-7.97c0.47-1.72,1.18-3.29,2.11-4.68c-8.24,8.8-18.24,14.49-30.47,16.36
			c-4.31,0.66-8.51,0.45-12.72-0.55c-0.81-0.19-1.51-0.5-2.14-0.91c0.04,0.19,0.08,0.39,0.13,0.58c0.45,1.85,0.16,3.48-0.16,4.87
			c-0.43,1.88-1.14,3.76-2.19,5.81C252.35,151.61,252.35,151.6,252.36,151.6L252.36,151.6z"/>
		<path class="st1" d="M596.56,344.78c-7.67-0.04-15.33-0.04-23-0.03c-2.12,0-3.34,0.95-3.81,3.03c-0.24,1.05-0.26,2.17-0.25,3.26
			c0.02,5.38-0.02,10.75,0.16,16.13c0.1,2.9-0.71,5.15-2.91,7.13c-3.55,3.19-7.04,6.47-10.28,9.97c-2.68,2.89-5.55,4.29-9.63,4.27
			c-31.36-0.14-62.73-0.03-94.09-0.14c-3.62-0.01-5.65,1.24-7.13,4.51c-3.45,7.61-7.28,15.05-10.8,22.63
			c-1.16,2.5-2.73,3.54-5.52,3.53c-23.4-0.08-46.8,0-70.2-0.09c-3.33-0.01-5.89,0.99-8.25,3.33c-13.3,13.17-26.68,26.26-40.04,39.36
			c-2.8,2.74-3.1,2.74-5.76,0.04c-7.11-7.25-14.61-14.09-21.71-21.35c-5.98-6.11-12.31-11.89-18.38-17.92
			c-2.5-2.48-5.31-3.52-8.83-3.51c-23.6,0.11-47.2,0.06-70.79,0.18c-2.81,0.01-4.38-0.97-5.5-3.5c-3.51-7.91-7.19-15.75-10.8-23.61
			c-1.41-3.07-3.34-4.32-6.6-3.84c-2.29,0.34-4.56,0.34-6.85,0.34c-17.92,0.01-35.85,0.01-53.77,0.01c-11.65,0-23.3-0.02-34.95,0.02
			c-1.99,0.01-3.78-0.34-5.22-1.74c-4.85-4.73-9.68-9.47-14.5-14.23c-1.12-1.11-1.51-2.45-1.34-4.08
			c0.66-6.35,0.33-12.73,0.21-19.09c-0.07-3.8-2.14-5.58-5.93-5.62c-6.17-0.06-12.35-0.02-18.52-0.01c-0.59,0-1.21,0-1.78,0.14
			c-2.13,0.52-3.79,2.42-3.65,4.11c0.16,1.98,1.98,3.86,4.09,4.15c0.78,0.11,1.59,0.07,2.39,0.07c3.88,0,7.77-0.05,11.65,0
			c3.04,0.04,3.46,0.45,3.48,3.49c0.04,5.48,0.08,10.95,0,16.43c-0.03,2.05,0.62,3.56,2.12,4.98c5.99,5.68,11.91,11.42,17.78,17.23
			c1.36,1.35,2.81,2.14,4.71,2.19c1.09,0.03,2.18,0.24,3.27,0.24c31.36-0.02,62.73-0.04,94.09-0.12c1.46,0,2.53,0.43,3.33,1.54
			c0.52,0.72,0.94,1.52,1.32,2.33c3.36,7.11,6.84,14.17,9.98,21.37c1.71,3.92,4.23,5.6,8.53,5.45c7.35-0.25,14.71-0.36,22.06-0.52
			c16.22-0.35,32.46-0.04,48.69-0.16c3.26-0.02,5.7,1.04,7.97,3.26c10.58,10.4,21.21,20.74,31.85,31.07
			c4.14,4.02,8.33,8,12.51,11.97c1.7,1.61,1.89,1.61,3.69,0.02c2.01-1.78,4.06-3.53,5.97-5.41c12.66-12.4,25.33-24.78,37.88-37.29
			c2.51-2.51,5.15-3.65,8.72-3.63c19.91,0.12,39.83,0.05,59.74,0.07c2.68,0,5.35-0.06,8.04,0.36c1.84,0.29,3.74,0.11,5.63-0.27
			c1.85-0.36,3.05-1.28,3.83-2.94c1.45-3.06,2.94-6.09,4.41-9.14c2.45-5.11,4.92-10.21,7.33-15.35c0.81-1.74,2.07-2.61,3.96-2.6
			c1,0,1.99-0.02,2.99-0.02c15.23,0,30.47,0,45.7,0c0,0,0,0,0,0c13.14,0,26.29,0,39.43,0c2.89,0,5.78,0.02,8.66-0.02
			c1.94-0.02,3.65-0.54,5.17-1.92c6.57-5.95,12.71-12.34,19.1-18.48c1.23-1.19,1.8-2.53,1.79-4.24c-0.04-5.27-0.08-10.54,0.31-15.81
			c0.23-3.15,0.46-3.6,3.66-3.63c4.08-0.03,8.17-0.04,12.25,0.01c1.67,0.02,3.14-0.4,4.44-1.44c1.39-1.11,1.96-2.87,1.47-4.53
			C599.69,345.32,598.85,344.79,596.56,344.78z"/>
		<path class="st1" d="M322.47,421.44c-0.82,1.12-0.77,2.46-1.12,3.67c-0.86,2.94-2.7,4.04-6.33,3.58c2.04-2.17,3.38-4.47,2.92-7.51
			c-0.53-3.55-1.7-5.83-3.92-6.75c0.02,1.8,0.92,3.29,1.35,4.89c0.39,1.45,0.85,2.88,0.18,4.37c-0.4,0.9-0.68,2.07-1.88,2.01
			c-0.97-0.05-0.88-1.18-1.17-1.88c-0.11-0.28-0.2-0.56-0.33-0.83c-0.8-1.65-2.1-2.72-3.94-2.78c-1.87-0.06-3.16,1.02-3.97,2.67
			c-0.22,0.45-0.37,0.93-0.58,1.38c-0.29,0.62-0.48,1.44-1.36,1.37c-0.79-0.06-1.05-0.83-1.41-1.41c-1.05-1.73-0.61-3.44,0.08-5.15
			c0.65-1.6,1.51-3.16,1.59-5.24c-2.34,0.93-2.99,2.71-3.7,4.44c-1.58,3.81-0.53,7.28,1.86,10.64c-4.25-0.29-5.29-1.18-6.04-4.76
			c-0.12-0.58-0.27-1.16-0.5-1.71c-0.1-0.23-0.39-0.47-0.64-0.54c-0.5-0.15-0.71,0.29-0.84,0.65c-0.16,0.46-0.26,0.96-0.3,1.45
			c-0.2,3.02,1.66,5.56,4.83,6.75c0.95,0.36,2.2,0.16,2.95,1.47c-2.34,1.3-5.49,1.2-6.62,4.14c-0.97,2.54-2.02,5.1,0.21,8.05
			c0.76-2.4,0.25-4.65,1.41-6.44c1.23-1.9,2.97-3,6.02-2.91c-2.41,2.61-3.63,5.13-2.84,8.23c0.69,2.69,1.18,5.46,3.61,7.29
			c-0.21-2.21-0.83-4.28-1.2-6.4c-0.38-2.2-0.03-4.28,1.68-5.97c0.86,0.67,0.87,1.51,1.11,2.25c0.66,2.05,1.88,3.52,4.16,3.73
			c2.05,0.19,3.73-1.04,4.8-3.35c0.39-0.83,0.36-1.91,1.31-2.66c1.42,1.98,1.84,3.96,1.31,6.09c-0.45,1.83-1.06,3.63-1.54,5.45
			c-0.13,0.48-0.64,1.12,0.45,1.63c1.4-1.37,2.28-3.1,2.77-5.04c0.49-1.92,1.29-3.76,1.08-5.83c-0.2-2.01-1.71-3.43-2.57-5.44
			c2.7,0.08,4.16,1.52,5.44,3.2c1.26,1.65,0.87,3.93,2.13,6.27c0.74-2.32,0.61-4.06,0.29-5.79c-0.53-2.87-1.94-4.96-5.05-5.54
			c-0.82-0.15-1.78-0.23-2.38-1.2c1.07-1.05,2.54-1.11,3.77-1.64C323.49,428.66,324.87,424.59,322.47,421.44z"/>
		<path class="st1" d="M34.21,340.13c1.33,0,2.53-0.33,3.71-0.95c1.56-0.82,1.87-2.19,1.9-3.76c0.03-1.52-0.9-2.34-2.05-3.03
			c-1.08-0.66-2.29-0.6-3.48-0.61c-4.87-0.01-9.75,0-14.62,0c0-0.01,0-0.02,0-0.03c-4.67,0-9.35-0.01-14.02,0.01
			c-0.99,0-2.02-0.04-2.96,0.19c-2.69,0.67-3.57,3.51-1.68,5.53c1.53,1.64,3.37,2.69,5.76,2.68
			C15.92,340.1,25.07,340.12,34.21,340.13z"/>
		<path class="st1" d="M614.82,333.99c-0.46-1.58-1.54-2.27-4.06-2.27c-10.05-0.02-20.1,0.02-30.16,0.03c-1.23,0-2.37,0.25-3.4,0.94
			c-2.29,1.54-2.35,4.32-0.13,5.98c1.4,1.04,2.93,1.56,4.72,1.53c4.28-0.07,8.56-0.02,12.84-0.02c0,0,0-0.01,0-0.01
			c4.28,0,8.56-0.06,12.84,0.03c1.89,0.04,3.52-0.5,5.06-1.48C614.52,337.46,615.34,335.77,614.82,333.99z"/>
		<path class="st1" d="M502,402.36c-0.88-0.14-1.78-0.12-2.68-0.12c-6.57-0.01-13.13,0-19.69-0.01c-6.57,0-13.13,0-19.69,0
			c-0.89,0-1.8-0.02-2.68,0.11c-1.22,0.19-1.96,0.97-1.97,2.24c-0.01,1.16,0.71,1.81,1.78,2.07c0.48,0.12,0.98,0.19,1.47,0.18
			c4.76-0.1,9.52-0.01,14.29,0.03c9.04,0.06,18.09-0.13,27.13-0.23c0.69-0.01,1.4-0.01,2.08-0.11c1.11-0.16,1.85-0.83,1.92-1.96
			C504.04,403.25,503.19,402.55,502,402.36z"/>
		<path class="st1" d="M158.41,402.53c-0.65-0.21-1.37-0.25-2.06-0.25c-13.83-0.01-27.65-0.01-41.48,0.01
			c-0.69,0-1.41,0.06-2.06,0.26c-1.07,0.33-1.6,1.14-1.49,2.28c0.1,1.05,0.76,1.59,1.76,1.69c0.79,0.08,1.59,0.08,2.38,0.08
			c6.76,0.01,13.53,0,20.29,0c6.66,0,13.33,0,19.99,0c0.79,0,1.59-0.01,2.38-0.09c1.01-0.1,1.68-0.67,1.78-1.69
			C160.03,403.69,159.46,402.87,158.41,402.53z"/>
		<path class="st1" d="M366.26,320.4c-0.23-1.59-0.29-3.16-0.33-4.75c-0.08-3.39-1.34-4.68-4.72-4.74
			c-3.18-0.05-6.37-0.01-9.56-0.01c-3.29,0-6.57-0.06-9.86,0.02c-3.14,0.07-3.94,0.88-3.99,3.9c-0.05,2.99-0.04,5.97,0.01,8.96
			c0.05,3.05,0.71,3.75,3.64,3.83c2.39,0.06,4.78,0.02,7.17,0.02c3.88,0,7.77,0.11,11.65-0.04
			C365.02,327.39,366.93,325.04,366.26,320.4z"/>
		<path class="st1" d="M252.25,318.37c-0.01-3.39-1.82-5.54-4.94-6.71c-1.42-0.53-2.86-0.78-4.37-0.78
			c-5.37,0.02-10.74-0.01-16.11,0.01c-4.03,0.02-4.9,0.89-4.92,4.92c-0.03,5.87-0.01,11.73-0.01,17.6c0,0,0.01,0,0.01,0
			c0,6.16-0.03,12.33,0.01,18.49c0.02,3.02,0.58,3.69,3.41,3.66c6.56-0.06,13.11,0.2,19.67-0.28c4.04-0.3,7.3-4.2,7.28-7.69
			C252.23,337.85,252.28,328.11,252.25,318.37z"/>
		<path class="st1" d="M162.85,310.93c-6.66-0.08-13.33-0.07-19.99,0c-2.79,0.03-3.5,0.81-3.54,3.64
			c-0.06,3.98-0.05,7.96-0.01,11.94c0.03,2.99,0.55,3.46,3.48,3.47c3.08,0,6.17,0,9.25,0c0,0.02,0,0.03,0,0.05
			c3.58,0,7.17,0.16,10.74-0.05c3.48-0.2,4.65-1.52,4.74-4.87c0.08-3.18,0.09-6.37,0-9.55
			C167.42,312.48,165.96,310.97,162.85,310.93z"/>
		<path class="st1" d="M278.3,209.27c0.22,1.72,0.44,3.5,0.64,5.27c0.61,5.52,0.91,11.32,0.94,17.95c0,0,0,0,0,0.01
			c0.13,0.62,0.25,1.24,0.37,1.86c1.29,6.52,2.43,13.07,2.75,19.71c0.15,2.93,1.11,5.39,3.02,7.55c0.92,1.04,1.8,2.1,2.7,3.16h25.9
			c0.29-1.83,0.19-3.74,1-5.53c0.65,0.29,0.64,0.88,0.77,1.36c0.37,1.37,0.45,2.82,0.91,4.17h25.9c-0.07-3.32,0.08-6.63,0.45-9.94
			c0.3-2.72,1.08-5.2,2.37-7.6c1.34-2.49,2.32-5.15,3.1-7.87c1.55-5.39,2.72-10.86,3.57-16.4c0.04-0.3,0.09-0.6,0.14-0.89
			c-1.58-7.01-2.26-14.44-2.07-22.45c0.06-2.5,0.19-5.03,0.38-7.58c-0.57-3.57-1.07-7.15-1.44-10.74
			c-0.44-4.24-0.89-8.48-1.32-12.73c-0.02-0.19-0.04-0.39-0.06-0.58c-0.18-1.78-1.14-2.92-2.77-3.51c-0.25-0.09-0.49-0.18-0.74-0.26
			c-0.93-0.31-1.86-0.59-2.79-0.91c-5.24-1.8-10.63-3.25-15.27-6.48c-0.43-0.3-0.74-0.26-0.81,0.33c-0.02,0.2-0.02,0.4-0.04,0.59
			c-0.85,9.98-1.65,19.95-2.97,29.88c-0.03,0.25,0.11,0.63-0.43,0.69c-0.55-1.19-0.97-2.45-1.35-3.72
			c-1.06-3.51-2.1-7.02-3.15-10.53c-0.4-1.34-0.85-2.65-1.78-3.73c-0.42-0.49-0.31-0.86,0.11-1.26c0.53-0.52,1.04-1.06,1.55-1.6
			c0.69-0.73,0.69-0.99,0.11-1.78c-0.3-0.41-0.74-0.65-1.15-0.92c-0.36-0.22-0.85-0.29-1-0.86c0.16-0.16,0.31-0.35,0.49-0.52
			c2.42-2.23,4.43-4.81,6.39-7.44c1-1.33,1.47-2.8,1.04-4.47c-0.46-1.8-0.27-3.54,0.44-5.24c0.4-0.96,0.85-1.9,1.21-2.87
			c0.13-0.34,0.24-0.68,0.33-1.01c0.65-2.27,0.67-4.53-0.41-6.78c-0.43-0.9-0.69-1.85-0.92-2.82c-0.02-0.1-0.05-0.2-0.07-0.3
			c-0.27-1.1-0.57-2.19-1-3.25c-1.08-2.65-2.9-4.55-5.55-5.7c-0.83-0.36-1.67-0.56-2.51-0.67c-1-0.12-2.02-0.09-3.03,0
			c-5.36,0.49-9.07,3.54-10.39,8.39c-0.31,1.13-0.53,2.26-0.66,3.38c-0.45,3.84,0.16,7.61,2.07,11.2c0.41,0.77,0.78,1.53,1.08,2.31
			c0.76,1.92,1.15,3.91,0.87,6.05c-0.02,0.2-0.06,0.4-0.1,0.61c-0.24,1.27,0.18,2.34,1.1,3.23c0.42,0.41,0.81,0.87,1.23,1.29
			c1.44,1.45,3.17,2.54,4.74,3.83c1.24,1.01,1.25,1,0.31,2.21c-0.18,0.23-0.35,0.49-0.54,0.71c-0.39,0.46-0.34,0.9,0.04,1.33
			c0.42,0.49,0.81,1.01,1.27,1.46c0.67,0.65,0.89,1.34,0.61,2.27c-0.33,1.09-0.54,2.21-0.75,3.34c-0.78,4.25-1.11,8.55-1.49,12.84
			c-0.03,0.33,0.11,0.76-0.32,1.02c-4.76-9.46-6.2-19.68-7.51-29.94c-0.49,0.11-0.66,0.44-0.88,0.68c-1.53,1.64-3.28,3.02-5.15,4.25
			c-2.71,1.78-5.63,3.13-8.57,4.44c-1.54,0.69-3.08,1.35-4.62,2.04c-1.61,0.73-2.6,1.9-2.74,3.74c-0.1,1.28-0.38,2.55-0.52,3.83
			c-0.98,9.16-2.12,18.29-3.56,27.4c0,0,0,0,0,0.01C277.92,206.27,278.11,207.79,278.3,209.27z M340.5,205.06
			c3.01,2.46,3.66,10.88,1.11,15.81C339.71,218.63,339.16,208.01,340.5,205.06z M289.92,207.91c0.87,0.26,1.13,0.94,1.43,1.53
			c1.53,3.02,1.87,6.23,1.43,9.53c-0.16,1.22-0.49,2.42-0.79,3.62c-0.14,0.57-0.29,1.15-0.8,1.67
			C288.86,218.93,288.29,213.54,289.92,207.91z"/>
		<path class="st1" d="M203.79,224.03c1.19,2.78,2.33,5.58,3.48,8.37c0.73,1.8,1.22,3.66,1.43,5.6c0.29,2.76-0.05,5.45-0.76,8.1
			c-0.53,2,0.21,3.52,1.75,4.69c1.24,0.94,2.64,1.59,4.27,1.43c0.64-0.06,0.93,0.17,0.89,0.82c-0.03,0.4-0.01,0.79-0.02,1.19
			c-0.07,3.52-0.12,7.04,0.06,10.56c7.64,0,15.28,0,22.92,0c0.07-0.84,0.4-1.6,0.71-2.54c0.6,0.85,0.52,1.75,0.78,2.54
			c7.54,0,15.08,0,22.62,0c0.22-1.72,0.25-3.46,0.29-5.19c0.02-1.09,0.1-2.18,0.26-3.26c0.05-0.34,0-0.75,0.26-0.99
			c0.94-0.88,0.82-1.99,0.66-3.06c-0.22-1.54-0.18-3.05,0.01-4.59c0.55-4.42,0.08-8.81-0.47-13.19c-0.57-4.47-1.24-8.93-1.79-13.41
			c-0.26-2.1-0.21-4.22,0.27-6.42c0.66,0.4,0.8,1,0.97,1.54c1.14,3.6,2.03,7.27,2.17,11.05c0.21,5.41,0.76,10.78,1.42,16.14
			c0.21,1.72,0.36,3.45,0.58,5.17c0.05,0.43-0.09,0.78-0.21,1.15c-0.32,0.94-0.61,1.89-0.66,2.89c-0.12,2.28-0.24,4.55-0.57,6.81
			c-0.05,0.34-0.03,0.69-0.01,1.04c0.02,0.52,0.14,1,0.78,1.09c0.59,0.08,1.09-0.07,1.39-0.63c0.52-0.98,0.72-2.05,0.87-3.13
			c0.05-0.34,0.05-0.69,0.12-1.03c0.05-0.3,0.19-0.57,0.55-0.61c0.33-0.03,0.57,0.12,0.76,0.37c0.27,0.37,0.38,0.8,0.42,1.25
			c0.12,1.57-0.28,2.95-1.45,4.05c-0.47,0.44-0.95,0.87-1.45,1.28c-0.54,0.45-0.81,0.99-0.7,1.69c1.39,0,2.78,0,4.17,0
			c0.09-0.33,0.39-0.43,0.65-0.55c1.06-0.45,1.77-1.26,2.29-2.25c1.68-3.21,2.51-6.55,1.6-10.18c-0.19-0.76-0.3-1.55-0.2-2.36
			c0.5-3.99,0.7-8,0.76-12.02c0.11-7.49-0.07-14.97-0.88-22.43c-0.46-4.24-1.09-8.46-1.49-12.7c-0.59-6.42-1.07-12.84-1.54-19.27
			c-0.26-3.53-0.86-6.97-2.01-10.32c-0.88-2.58-2.45-4.5-4.88-5.71c-0.49-0.24-0.98-0.48-1.48-0.7c-4.34-1.99-8.8-3.69-13.1-5.77
			c-0.3,0.69-0.72,1.4-1.29,2.11c-0.34,0.42-0.69,0.84-1.06,1.26c-0.03,6.35-0.36,12.7-0.61,19.04l0.23,3.36
			c0.4,5.69,0.81,11.57,1.15,17.38c0.23,3.9,0.34,7.84,0.46,11.64l0.06,1.99c0.01,0.38-0.01,0.74-0.04,1.09
			c0.12,0.88,0.22,1.76,0.29,2.64c0.18,2.49-0.13,2.78-2.53,3.29c-0.28,0.06-0.56,0.1-0.84,0.15c-0.31,0.31-0.6,0.58-0.84,0.8
			c-1.05,0.97-2.41,1.5-3.86,1.5c-1.54,0-3.05-0.6-4.26-1.69c-0.15-0.14-0.3-0.28-0.44-0.42c-0.54-0.06-1.07-0.12-1.61-0.19
			c-1.62-0.22-3.25-0.38-4.83-0.83c-1.24-0.35-1.37-0.54-1.13-1.77c0.22-1.12,0.5-2.22,0.8-3.32c1.01-3.7,2.2-7.37,3.03-11.12
			c0.05-2.46,0.09-4.93,0.14-7.39l0.06-3.07c0-0.17,0-0.34,0-0.51l0-0.3l0-0.49c0.02-4.26,0.04-8.62,0.2-12.99
			c-0.71-5-1.43-10-2.15-15c-0.23-1.6-0.45-3.19-0.68-4.79c-0.35-0.33-0.7-0.66-1.05-1.01c-0.69-0.7-1.25-1.43-1.71-2.19
			c-1.15,0.61-2.32,1.2-3.54,1.67c-4.02,1.56-8.01,3.18-12.09,4.57c-0.94,0.32-1.85,0.7-2.74,1.14c-1.04,0.51-1.68,1.28-1.98,2.44
			c-1.45,5.46-2.67,10.98-3.53,16.56c-0.64,4.21-1.15,8.44-1.73,12.65c0.34,3.41,0.66,6.76,0.94,10.03c0.4,4.62,0.21,9.16-0.1,13.16
			C203.23,222.62,203.49,223.33,203.79,224.03z"/>
		<path class="st1" d="M372.02,159.99c0.48,1.3,0.29,2.53-0.44,3.69c-0.2,0.31-0.41,0.62-0.63,0.91c-0.64,0.85-1.37,1.63-2.19,2.33
			c-1.92,1.65-4.01,3.08-6.08,4.52c-3.55,2.46-5.51,5.82-6.15,10.08c-0.52,3.44-0.92,6.89-1.2,10.36c-0.21,2.61-0.34,5.22-0.41,7.85
			c-0.18,7.54,0.45,14.95,2.15,22.18c0.84,3.57,1.94,7.09,3.34,10.56c0.59,1.47,1.03,2.99,1.29,4.57c0.39,2.34-0.05,4.65-0.22,6.96
			c-0.2,2.82-0.47,5.63-0.72,8.44c-0.08,0.95,0.11,1.77,1.02,2.29c0.78,0.45,0.95,1.22,1.01,2.04c0.21,2.67,0.41,5.33,0.62,8h41.97
			c-0.24-3.02-0.45-6.03-0.71-9.04c-0.09-1.09,0.12-1.88,1.28-2.34c0.99-0.39,1.34-1.26,1.1-2.33c-0.13-0.58-0.24-1.16-0.36-1.75
			c-0.69-3.4-1.43-6.78-1.94-10.22c-0.25-1.7,0.2-3.13,1.21-4.44c0.91-1.17,1.85-2.33,2.78-3.48c1.13-1.39,2.22-2.81,3.23-4.28
			c0.89-1.31,1.71-2.66,2.43-4.08c0.47-0.92,0.89-1.85,1.26-2.79c0-0.03,0-0.07,0.01-0.1c0.08-1.34,0.17-2.67,0.26-4
			c0.1-1.49,0.2-3,0.29-4.52v-0.01c0.13-2.15,0.24-4.3,0.31-6.46c0-0.01,0-0.03,0-0.04c0.06-1.83,0.09-3.66,0.07-5.47
			c0-0.32-0.01-0.64-0.01-0.97c0-0.02,0-0.04,0-0.07c-0.19-0.82-0.36-1.64-0.52-2.47c-0.94-5.05-1.94-10.08-3.18-15.07
			c-0.39-1.55-0.8-3.1-1.25-4.64c-0.81-2.8-2.15-5.19-4.51-6.98c-1.39-1.06-2.85-1.98-4.46-2.64c-2.65-1.09-5.33-2.14-7.96-3.28
			c-2.76-1.2-4.9-3.13-6.53-5.67c-0.74-1.16-1.13-2.41-1.26-3.76c-0.2-1.99,0.2-3.83,1.16-5.58c1.26-2.28,1.52-4.67,0.67-7.18
			c-0.39-1.17-0.62-2.39-0.93-3.59c-0.36-1.39-0.73-2.78-1.29-4.1c-0.89-2.06-2.28-3.54-4.02-4.44c-1.03-0.53-2.19-0.86-3.44-0.99
			c-3.84-0.39-7.32,0.96-9.55,3.62c-0.24,0.33-0.48,0.65-0.73,0.98c-1.18,1.81-1.85,4.09-1.81,6.74c0.11,6.63,1.56,13.07,4.41,19.13
			C371.63,158.97,371.83,159.48,372.02,159.99z M379.36,221.48c-0.59,0.41-1.14,0.48-1.76,0.03c-1.34-0.97-2.5-2.1-3.48-3.43
			c-0.45-0.6-0.41-1.31-0.41-2c0.01-3.42,0.25-6.84,0.56-10.24c0.56-6.17,1.09-12.35,1.7-18.51c0.36-3.7,0.82-7.39,1.31-11.08
			c0.16-1.19,0.3-2.36,0.04-3.46c-0.15-0.62-0.42-1.21-0.89-1.78c-0.16-0.19-0.32-0.45-0.18-0.68c0.53-0.93,1.31-1.61,2.26-2.09
			c0.77-0.39,1.3,0.22,1.85,0.6c0.28,0.2,0.52,0.46,0.76,0.72c0.71,0.79,0.77,0.93,0.07,1.76c-0.84,1-1,2.12-0.89,3.34
			c0.03,0.31,0.05,0.62,0.08,0.93c0.24,2.8,0.44,5.61,0.72,8.4c0.36,3.6,0.53,7.22,0.73,10.83c0.15,2.57,0.24,5.15,0.35,7.73h0.03
			c0.21,4.16,0.36,8.32,0.66,12.48C383.07,217.99,381.6,219.91,379.36,221.48z M404.26,211.31c-0.37,1.16-0.72,2.35-1.6,3.45
			c-0.79-1-1.02-2.01-1.13-3.05c-0.24-2.1,0.11-4.15,0.45-6.21c0.05-0.31,0.06-0.74,0.5-0.82c0.42-0.08,0.62,0.24,0.81,0.53
			C404.48,207.1,404.97,209.13,404.26,211.31z"/>
		<path class="st1" d="M170.89,161.64c-0.02,0.27-0.04,0.53-0.06,0.79c-0.16,2.13-0.27,4.26-0.46,6.38
			c-0.51,5.73-1.44,11.4-1.74,17.16c-0.39,7.44,0.31,14.76,1.83,22.01c1.02,4.86,2.68,9.53,4.44,14.17c0.98,2.57,0.8,2.8-1.84,3.35
			c-2.64,0.55-5.29,0.78-7.94,0.77c-0.18,0.16-0.35,0.32-0.54,0.47c-0.57,0.47-1.89,1.57-3.82,1.57c-1.58,0-2.76-0.74-3.32-1.09
			c-1.07-0.67-1.92-1.4-2.6-2.16c-1.52-0.35-3.02-0.76-4.5-1.29c-1.23-0.44-1.58-0.95-1.49-2.22c0.05-0.64,0.19-1.28,0.36-1.89
			c3.23-11.32,4.19-22.89,3.82-34.59c-0.22-6.69-0.39-13.38-0.16-20.08c0.02-0.6,0.04-1.2,0.06-1.81c-0.69-0.61-1.26-1.29-1.69-2.04
			c-2.31,1.27-4.63,2.53-7,3.67c-2.46,1.18-4.9,2.39-7.37,3.55c-2.52,1.18-3.85,3.14-4.18,5.88c-0.25,2.12-0.43,4.25-0.51,6.37
			c-0.19,4.95-0.27,9.91-0.43,14.87c-0.1,2.92-0.19,5.85-0.41,8.77c-0.51,6.68-0.7,13.37-0.31,20.07c0.3,5.2,0.63,10.39,0.86,15.59
			c0.12,2.63,0.32,5.27,1.45,7.7c0.65,1.39,0.69,2.74,0.45,4.19c-0.47,2.81-0.16,5.49,1.15,8.09c0.94,1.87,2.29,3.2,4.14,4.09
			c0.49,0.23,1.03,0.37,1.39,0.82c7.54,0,15.08,0,22.62,0c0.12-1,0.2-2,0.73-2.93c0.25,0.98,0.5,1.96,0.75,2.93
			c7.84,0,15.68,0,23.52,0c0.03-0.25,0.1-0.5,0.08-0.74c-0.13-1.23,0.46-1.94,1.45-2.64c1.99-1.41,3.3-3.31,3.91-5.76
			c0.45-1.82,0.52-3.61,0.45-5.45c-0.1-2.73-0.08-5.42,0.7-8.1c1.77-6.09,3.41-12.22,3.96-18.58c0.42-4.8,0.67-9.59,0.26-14.41
			c-0.45-5.29-0.97-10.56-1.55-15.84c-0.82-7.49-1.85-14.95-2.99-22.4c-0.47-3.05-1.96-4.99-4.91-5.84
			c-0.43-0.12-0.84-0.3-1.26-0.44c-1.74-0.58-3.49-1.12-5.22-1.74c-3.39-1.21-6.82-2.31-10.07-3.87c-0.36,0.7-0.82,1.38-1.42,2.01
			C171.3,161.21,171.09,161.42,170.89,161.64z"/>
		<path class="st1" d="M418.23,249.44c-0.01,0.5-0.04,1-0.08,1.49c-0.1,1.21-0.3,2.38-0.68,3.55c-0.49,1.5-0.45,2.98,0.05,4.51
			c0.48,1.46,0.88,2.94,1.64,4.26c0.31,0.54,0.68,1.05,1.13,1.52h6.85c0.59-1.19,0.28-2.07-0.91-2.66
			c-0.33-0.16-0.53-0.43-0.53-0.82c0.03-2.26-0.45-4.55,0.28-6.78c0.04-0.13,0.07-0.26,0.1-0.4c0.02-0.09,0.04-0.17,0.07-0.26
			c0.03-0.09,0.06-0.17,0.1-0.26c0.02-0.04,0.04-0.08,0.07-0.13c0.02-0.03,0.04-0.06,0.06-0.09c0.02-0.03,0.04-0.06,0.07-0.09
			c0.02-0.02,0.03-0.04,0.05-0.05c0.04-0.05,0.1-0.1,0.15-0.14c0.01,0.07,0.03,0.13,0.04,0.19c0.01,0.05,0.02,0.1,0.04,0.15
			c0,0.01,0.01,0.03,0.01,0.04c0.09,0.37,0.16,0.7,0.25,1.03c0.13,0.53,0.17,1.13,0.54,1.52c1.15,1.24,1.19,2.78,1.29,4.31
			c0.1,1.48,0.15,2.96,0.39,4.43h21.43c0.35-0.74,0.24-1.54,0.31-2.32c0.04-0.49,0.05-0.98,0.09-1.47c0.02-0.25,0.1-0.53,0.35-0.6
			c0.34-0.09,0.56,0.18,0.66,0.46c0.44,1.3,0.85,2.61,1.27,3.92h22.62c-0.02-0.4,0-0.8-0.07-1.19c-0.19-1.04,0.03-1.91,0.77-2.72
			c0.57-0.62,0.81-1.47,1.09-2.27c0.7-2.05,0.78-4.15,0.58-6.25c-0.03-0.32-0.07-0.64-0.11-0.96c-0.09-0.68-0.01-1.24,0.28-1.85
			c0.3-0.64,0.57-1.28,0.82-1.93c0.5-1.29,0.89-2.61,1.17-3.97c0.33-1.6,0.59-3.2,0.84-4.81c0.04-0.27,0.08-0.53,0.12-0.8
			c0.22-1.51,0.42-3.02,0.63-4.52c0.29-2.07,0.6-4.15,0.88-6.22c0.51-3.71,0.97-7.43,1.14-11.2c0.41-9.14-0.97-17.98-3.8-26.64
			c-1.15-3.53-2.39-7.04-3.26-10.66c-0.75-3.12-1.33-6.26-1.03-9.46c0.04-0.42,0.1-0.85,0.17-1.28c0.09-0.53,0.04-1.09,0.03-1.63
			c-0.02-2.3-1.11-3.83-3.3-4.59c-1.83-0.64-3.7-1.1-5.59-1.51c-3.1-0.68-6.2-1.32-9.14-2.58c-0.06-0.02-0.11-0.05-0.16-0.07
			c-0.23,0.85-0.62,1.67-1.16,2.4c-0.12,0.16-0.24,0.32-0.36,0.49c-0.28,0.38-0.57,0.77-0.87,1.16c-0.04,0.52-0.08,1.04-0.12,1.56
			c-0.19,2.31-0.41,4.61-0.69,6.91c-0.14,1.14-0.28,2.29-0.41,3.43c-0.45,3.83-0.88,7.66-1.27,11.49c-0.06,0.6-0.13,1.21-0.19,1.81
			v0l0,2.26c0.01,4.25,0.02,8.58,0.04,12.92v0.01c0.35,2.21,0.83,4.4,1.41,6.57c1.01,3.8,2.62,7.37,4.11,10.99
			c0.91,2.2,0.8,2.36-1.48,2.85c-2.36,0.5-4.75,0.83-7.15,1.03c-0.68,0.64-1.34,1.12-1.84,1.49c-0.93,0.68-2,1.04-3.09,1.04
			c-1.54,0-2.93-0.68-4.15-2.01c-0.3-0.33-0.75-0.83-1.25-1.5l0,0c-0.77-0.3-0.93-0.55-0.94-1.43c-1.01-1.77-1.85-4.18-1.46-7.11
			c0-0.07,0-0.13,0.01-0.19c0-0.13,0.01-0.25,0.01-0.37l0.01-0.1c0.25-3.35,0.47-6.77,0.68-10.08c0.14-2.2,0.29-4.43,0.44-6.66
			c0,0,0,0,0-0.01c-0.08-1.46-0.17-2.92-0.27-4.38c-0.24-3.5-0.36-7-0.36-10.51c0-3.35,0.13-6.71,0.39-10.06
			c0.03-0.42,0.07-0.85,0.1-1.27c0.09-1.05,0.2-2.11,0.23-3.17c-0.9-0.71-1.66-1.55-2.25-2.48c-2.61,2.05-5.35,3.91-8.06,5.81
			c-1.71,1.2-3.3,2.54-4.75,4.05c-0.81,0.85-1.36,1.82-1.59,2.97c-0.16,0.8-0.3,1.6-0.42,2.41c-0.03,0.21-0.06,0.41-0.09,0.62
			c-0.03,0.22-0.06,0.43-0.09,0.65c-0.02,0.2-0.04,0.39-0.07,0.59c-0.02,0.17-0.04,0.33-0.05,0.5c-0.02,0.25-0.04,0.51-0.06,0.76
			c-0.02,0.31-0.04,0.62-0.05,0.93c-0.02,0.31-0.02,0.62-0.03,0.93c-0.03,1.9-0.06,3.8-0.08,5.7c-0.01,0.79-0.02,1.58-0.02,2.37l0,0
			v0.02c-0.01,1.62-0.02,3.24-0.01,4.86v0.04c0,0.48,0.01,0.96,0.01,1.43c0.07,6.95-0.51,13.87-0.94,20.8
			c-0.01,0.24-0.03,0.48-0.04,0.72c0,0,0,0.01,0,0.01c-0.07,1.06-0.13,2.12-0.19,3.18c-0.11,1.86-0.22,3.73-0.33,5.59
			c-0.13,2.31-0.28,4.62-0.42,6.93c-0.05,0.82-0.1,1.64-0.15,2.46c-0.16,2.67-0.31,5.35-0.42,8.02
			C418.28,247.88,418.25,248.66,418.23,249.44z"/>
		<path class="st1" d="M152.75,151.44c1.08,1.79,1.65,3.71,1.65,5.79c0,1.19,0.47,2.12,1.34,2.86c1.06,0.9,2.14,1.76,3.22,2.64
			c1.04,0.85,1.05,0.85,0.48,2.09c-0.38,0.83-0.73,1.66-0.23,2.55c0.48,0.87,0.48,1.78,0.34,2.74c-0.67,4.61-1.14,9.25-1.48,13.9
			c-0.52,7.12-1.01,14.24-1.04,19.69c-0.17,5.96-0.21,10.23-0.45,14.49c-0.15,2.58,1.04,4.23,3.07,5.5c1,0.63,1.32,0.63,2.25-0.15
			c0.69-0.57,1.33-1.19,1.96-1.82c0.7-0.69,1.07-1.53,1.06-2.53c-0.01-1.09,0.04-2.18,0.02-3.27c-0.33-12.54-0.66-25.08-1.02-37.62
			c-0.07-2.48-0.19-4.96-0.62-7.41c-0.21-1.22-0.22-2.35,0.41-3.45c0.44-0.77,0.32-1.53-0.12-2.25c-0.18-0.3-0.36-0.6-0.57-0.87
			c-0.38-0.5-0.26-0.91,0.18-1.29c0.56-0.49,1.12-0.98,1.68-1.47c1.24-1.07,2.43-2.19,3.55-3.39c0.87-0.93,1.28-1.92,1.08-3.23
			c-0.31-2.09,0.21-4.03,1.31-5.83c0.16-0.25,0.31-0.51,0.47-0.76c1.53-2.58,2.24-5.28,1.25-8.24c-0.24-0.72-0.23-1.47-0.27-2.21
			c-0.14-2.23-0.41-4.43-1.14-6.57c-0.7-2.07-1.94-3.65-3.88-4.69c-0.92-0.49-1.86-0.93-2.86-1.24c-5.04-1.55-11.99,0.9-12.99,8.01
			c-0.4,2.85-0.76,5.7-1.09,8.55c-0.23,1.95,0.07,3.85,0.72,5.7C151.5,148.96,152.03,150.25,152.75,151.44z"/>
		<path class="st1" d="M228.87,148.99c1.11,1.76,1.89,3.57,1.77,5.71c-0.1,1.69,0.6,3.05,1.79,4.24c1.54,1.55,3.22,2.95,4.8,4.45
			c1.14,1.09,1.76,1.12,0.44,2.9c-0.55,0.74-0.66,1.56-0.01,2.32c0.91,1.05,0.88,2.27,0.67,3.52c-0.3,1.76-0.41,3.54-0.53,5.32
			c-0.41,6.24-0.43,12.48-0.46,18.73c0,0.3,0.01,0.59,0,0.89c-0.12,6.34-0.24,12.69-0.36,19.03c-0.05,2.49,1.24,4.33,2.97,5.9
			c0.79,0.72,1.82,0.82,2.46,0.22c1.39-1.29,2.69-2.71,2.62-4.78c-0.14-4.51-0.25-9.02-0.51-13.52c-0.41-7.02-0.92-14.04-1.41-21.06
			c-0.25-3.66-0.51-7.32-1.22-10.92c-0.23-1.17-0.23-2.25,0.31-3.32c0.43-0.86,0.37-1.68-0.11-2.54c-0.75-1.37-0.69-1.55,0.49-2.67
			c1.12-1.06,2.17-2.17,3.13-3.37c0.81-1.01,1.25-2.13,1.02-3.45c-0.36-2.01,0.18-3.79,1.17-5.54c1.1-1.94,2.05-3.96,2.55-6.16
			c0.22-0.97,0.41-1.97,0.17-2.94c-0.63-2.56-0.9-5.17-1.28-7.77c-0.52-3.57-2.49-6.09-5.59-7.77c-2.52-1.37-5.17-1.92-8.01-0.96
			c-4.56,1.53-6.85,4.83-7.46,9.44c-0.28,2.06-0.31,4.15-0.76,6.19C226.6,145.29,226.57,145.31,228.87,148.99z"/>
		<path class="st1" d="M432.95,144.31c0.15,0.73,0.31,1.48,0.16,2.21c-0.22,1.1,0.14,2.02,0.64,2.97c1.99,3.76,4.02,7.52,5.27,11.62
			c0.36,1.17,1.05,2.13,2.01,2.88c0.78,0.61,1.57,1.22,2.41,1.73c0.88,0.53,1.26,1.17,0.97,2.21c-0.38,1.33-0.25,2.64,0.33,3.91
			c0.32,0.7,0.23,1.45,0.12,2.2c-0.43,3.04-0.97,6.07-1.27,9.12c-0.99,10.16-1.49,20.36-2.23,30.54c-0.02,0.3-0.01,0.6-0.05,0.89
			c-0.37,2.71,0.87,4.79,2.59,6.69c0.47,0.51,0.99,0.91,1.67,0.41c1.83-1.34,3.38-2.74,3.34-5.39c-0.14-10.36-0.14-20.72-0.16-31.07
			c-0.01-3.63-0.17-7.23-1.13-10.76c-0.42-1.56-0.35-3.03,0.62-4.4c0.54-0.76,0.55-1.59,0.01-2.36c-1.48-2.12-1.24-1.9,0.33-3.93
			c0.94-1.21,1.96-2.37,2.92-3.56c0.68-0.85,1.33-1.73,1.98-2.6c0.49-0.67,0.69-1.43,0.58-2.25c-0.38-2.87,0.04-5.61,1.15-8.29
			c0.55-1.33,0.92-2.76,0.65-4.21c-0.88-4.65-2.86-8.74-6.49-11.9c-2.7-2.35-6.38-2.75-9.57-1.09
			C434.77,132.48,431.81,138.72,432.95,144.31z"/>
	</g>
	<g>
		<path class="st1" d="M47.86,480.36h2.35v16.75h-2.35V480.36z M49,480.36h9.62v2.23H49V480.36z M49,487.68h8.35v2.23H49V487.68z
			 M49,494.88h9.62v2.23H49V494.88z"/>
		<path class="st1" d="M67.62,480.36h2.35v16.75h-2.35V480.36z M68.8,494.88h9.59v2.23H68.8V494.88z"/>
		<path class="st1" d="M86.81,480.36h2.35v16.75h-2.35V480.36z M87.95,480.36h9.62v2.23h-9.62V480.36z M87.95,487.68h8.35v2.23
			h-8.35V487.68z M87.95,494.88h9.62v2.23h-9.62V494.88z"/>
		<path class="st1" d="M104.85,480.36h2.56l4.02,13.13l4.02-13.13H118l-5.46,16.75h-2.23L104.85,480.36z"/>
		<path class="st1" d="M129.61,480.36h2l6.17,16.75h-2.53l-4.64-13.51l-4.64,13.51h-2.53L129.61,480.36z M126.28,491.21h8.81v2.23
			h-8.81V491.21z"/>
		<path class="st1" d="M143.22,480.36h11.82v2.23h-11.82V480.36z M147.96,481.74h2.35v15.38h-2.35V481.74z"/>
		<path class="st1" d="M163.01,480.36h2.35v16.75h-2.35V480.36z M164.15,480.36h9.62v2.23h-9.62V480.36z M164.15,487.68h8.35v2.23
			h-8.35V487.68z M164.15,494.88h9.62v2.23h-9.62V494.88z"/>
		<path class="st1" d="M199.8,490.31v6.81h-2.35v-6.81l-5.1-9.94h2.61l3.66,7.56l3.66-7.56h2.62L199.8,490.31z"/>
		<path class="st1" d="M214.52,496.52c-0.89-0.51-1.58-1.23-2.07-2.17c-0.49-0.93-0.73-2.01-0.73-3.24v-4.75
			c0-1.23,0.24-2.31,0.73-3.24c0.49-0.93,1.18-1.65,2.07-2.17c0.89-0.51,1.92-0.77,3.09-0.77c1.17,0,2.2,0.26,3.09,0.77
			c0.89,0.51,1.58,1.23,2.07,2.17c0.49,0.93,0.73,2.01,0.73,3.24v4.75c0,1.23-0.24,2.31-0.73,3.24c-0.49,0.93-1.18,1.65-2.07,2.17
			c-0.89,0.51-1.92,0.77-3.09,0.77C216.44,497.29,215.41,497.03,214.52,496.52z M219.44,494.51c0.53-0.31,0.93-0.75,1.22-1.33
			c0.29-0.57,0.43-1.23,0.43-1.99v-4.91c0-0.75-0.14-1.42-0.43-1.99c-0.29-0.57-0.7-1.01-1.22-1.33c-0.53-0.31-1.13-0.47-1.83-0.47
			c-0.69,0-1.3,0.16-1.83,0.47c-0.53,0.31-0.93,0.75-1.22,1.33c-0.29,0.57-0.43,1.23-0.43,1.99v4.91c0,0.75,0.14,1.42,0.43,1.99
			c0.29,0.57,0.7,1.01,1.22,1.33c0.53,0.31,1.14,0.47,1.83,0.47C218.3,494.97,218.91,494.82,219.44,494.51z"/>
		<path class="st1" d="M234.97,496.56c-0.88-0.49-1.55-1.2-2.01-2.13c-0.46-0.93-0.69-2.06-0.69-3.37v-10.69h2.35v10.77
			c0,1.22,0.31,2.17,0.92,2.83c0.61,0.67,1.48,1,2.6,1c1.13,0,2-0.33,2.62-1c0.62-0.67,0.93-1.61,0.93-2.83v-10.77h2.35v10.69
			c0,1.31-0.23,2.44-0.69,3.37s-1.13,1.64-2.02,2.13c-0.88,0.49-1.95,0.73-3.19,0.73C236.91,497.29,235.85,497.04,234.97,496.56z"/>
		<path class="st1" d="M253.39,480.35h2.35v16.76h-2.35V480.35z M254.42,487.8h5.71c0.45,0,0.84-0.11,1.19-0.32
			c0.35-0.21,0.61-0.52,0.8-0.92c0.19-0.39,0.28-0.85,0.28-1.36s-0.09-0.97-0.28-1.37s-0.45-0.7-0.79-0.92
			c-0.34-0.22-0.74-0.32-1.19-0.32h-5.71v-2.24h5.62c0.97,0,1.82,0.2,2.55,0.6c0.73,0.4,1.3,0.97,1.71,1.7
			c0.4,0.73,0.6,1.58,0.6,2.54c0,0.96-0.2,1.81-0.61,2.54c-0.41,0.73-0.98,1.3-1.71,1.7c-0.73,0.4-1.58,0.6-2.54,0.6h-5.62V487.8z
			 M258.98,489.51l2.34-0.53l4.29,8.13h-2.79L258.98,489.51z"/>
		<path class="st1" d="M288.89,496.52c-0.89-0.51-1.58-1.23-2.07-2.17c-0.49-0.93-0.73-2.01-0.73-3.24v-4.75
			c0-1.23,0.24-2.31,0.73-3.24c0.49-0.93,1.18-1.65,2.07-2.17c0.89-0.51,1.92-0.77,3.09-0.77c1.17,0,2.2,0.26,3.09,0.77
			c0.89,0.51,1.58,1.23,2.07,2.17c0.49,0.93,0.73,2.01,0.73,3.24v4.75c0,1.23-0.24,2.31-0.73,3.24c-0.49,0.93-1.18,1.65-2.07,2.17
			c-0.89,0.51-1.92,0.77-3.09,0.77C290.81,497.29,289.78,497.03,288.89,496.52z M293.8,494.51c0.53-0.31,0.93-0.75,1.22-1.33
			c0.29-0.57,0.43-1.23,0.43-1.99v-4.91c0-0.75-0.14-1.42-0.43-1.99c-0.29-0.57-0.7-1.01-1.22-1.33c-0.53-0.31-1.13-0.47-1.83-0.47
			c-0.69,0-1.3,0.16-1.83,0.47c-0.53,0.31-0.93,0.75-1.22,1.33c-0.29,0.57-0.43,1.23-0.43,1.99v4.91c0,0.75,0.14,1.42,0.43,1.99
			c0.29,0.57,0.7,1.01,1.22,1.33c0.53,0.31,1.14,0.47,1.83,0.47C292.67,494.97,293.28,494.82,293.8,494.51z"/>
		<path class="st1" d="M307.1,480.36h2.13l8.19,12.95l-0.28,0.3v-13.25h2.33v16.74h-2.15l-8.17-12.75l0.28-0.3v13.05h-2.33V480.36z"
			/>
		<path class="st1" d="M329.28,480.36h2.35v16.75h-2.35V480.36z M330.45,494.88h9.59v2.23h-9.59V494.88z"/>
		<path class="st1" d="M350.82,497.12h-2.35v-16.75h2.35V497.12z"/>
		<path class="st1" d="M360.63,480.36h2.13l8.19,12.95l-0.28,0.3v-13.25H373v16.74h-2.15l-8.17-12.75l0.28-0.3v13.05h-2.33V480.36z"
			/>
		<path class="st1" d="M382.81,480.36h2.35v16.75h-2.35V480.36z M383.95,480.36h9.62v2.23h-9.62V480.36z M383.95,487.68h8.35v2.23
			h-8.35V487.68z M383.95,494.88h9.62v2.23h-9.62V494.88z"/>
		<path class="st1" d="M414.57,480.36h2.35v16.75h-2.35V480.36z M415.78,488.38h5.36c0.51,0,0.95-0.12,1.34-0.36
			c0.38-0.24,0.68-0.58,0.89-1.01c0.21-0.44,0.32-0.94,0.32-1.51c0-0.58-0.11-1.08-0.32-1.52c-0.21-0.44-0.51-0.78-0.89-1.02
			c-0.38-0.24-0.83-0.36-1.34-0.36h-5.36v-2.23h5.28c1,0,1.88,0.21,2.64,0.64c0.76,0.43,1.35,1.03,1.77,1.8
			c0.42,0.78,0.63,1.67,0.63,2.7c0,1.02-0.21,1.92-0.63,2.69s-1.01,1.37-1.77,1.79c-0.76,0.42-1.64,0.63-2.64,0.63h-5.28V488.38z"/>
		<path class="st1" d="M434.69,480.35h2.35v16.76h-2.35V480.35z M435.72,487.8h5.71c0.45,0,0.84-0.11,1.19-0.32
			c0.35-0.21,0.61-0.52,0.8-0.92c0.19-0.39,0.28-0.85,0.28-1.36s-0.09-0.97-0.28-1.37c-0.19-0.4-0.45-0.7-0.79-0.92
			c-0.34-0.22-0.74-0.32-1.19-0.32h-5.71v-2.24h5.62c0.97,0,1.82,0.2,2.55,0.6c0.73,0.4,1.3,0.97,1.71,1.7
			c0.4,0.73,0.6,1.58,0.6,2.54c0,0.96-0.2,1.81-0.61,2.54c-0.41,0.73-0.98,1.3-1.71,1.7c-0.73,0.4-1.58,0.6-2.54,0.6h-5.62V487.8z
			 M440.28,489.51l2.34-0.53l4.29,8.13h-2.79L440.28,489.51z"/>
		<path class="st1" d="M455.73,480.36h2.35v16.75h-2.35V480.36z M456.87,480.36h9.62v2.23h-9.62V480.36z M456.87,487.68h8.35v2.23
			h-8.35V487.68z M456.87,494.88h9.62v2.23h-9.62V494.88z"/>
		<path class="st1" d="M478.24,497.06c-0.72-0.15-1.4-0.38-2.02-0.69c-0.63-0.31-1.21-0.69-1.76-1.15l1.46-1.8
			c0.64,0.55,1.34,0.97,2.11,1.24c0.77,0.28,1.6,0.41,2.5,0.41c1.21,0,2.15-0.22,2.82-0.67c0.67-0.45,1-1.08,1-1.91v-0.01
			c0-0.58-0.15-1.05-0.46-1.39c-0.3-0.34-0.7-0.59-1.18-0.76c-0.48-0.16-1.1-0.32-1.86-0.46c-0.02-0.01-0.05-0.01-0.08-0.01
			s-0.05,0-0.07-0.01l-0.17-0.03c-1.12-0.19-2.03-0.41-2.74-0.65c-0.7-0.24-1.3-0.68-1.8-1.32c-0.5-0.64-0.75-1.55-0.75-2.74v-0.01
			c0-1.04,0.23-1.92,0.7-2.66c0.46-0.73,1.14-1.29,2.03-1.68c0.89-0.38,1.96-0.58,3.21-0.58c0.6,0,1.19,0.07,1.77,0.2
			c0.58,0.13,1.15,0.32,1.72,0.58c0.56,0.26,1.12,0.58,1.66,0.97l-1.34,1.87c-0.64-0.47-1.27-0.82-1.91-1.05
			c-0.63-0.23-1.27-0.35-1.91-0.35c-1.14,0-2.03,0.23-2.67,0.69s-0.95,1.1-0.95,1.94v0.01c0,0.58,0.16,1.03,0.49,1.36
			c0.33,0.33,0.73,0.57,1.22,0.73c0.49,0.16,1.17,0.32,2.03,0.49c0.03,0.01,0.06,0.01,0.09,0.02c0.03,0,0.06,0.01,0.09,0.02
			c0.04,0.01,0.08,0.02,0.13,0.02c0.05,0.01,0.09,0.02,0.13,0.02c1.01,0.21,1.86,0.45,2.54,0.74c0.68,0.28,1.25,0.74,1.7,1.38
			c0.46,0.63,0.69,1.5,0.69,2.6v0.02c0,1.02-0.24,1.9-0.73,2.62c-0.48,0.73-1.18,1.28-2.1,1.66c-0.92,0.38-2.03,0.57-3.32,0.57
			C479.73,497.29,478.96,497.21,478.24,497.06z"/>
		<path class="st1" d="M495.46,480.36h2.35v16.75h-2.35V480.36z M496.6,480.36h9.62v2.23h-9.62V480.36z M496.6,487.68h8.35v2.23
			h-8.35V487.68z M496.6,494.88h9.62v2.23h-9.62V494.88z"/>
		<path class="st1" d="M515.22,480.36h2.13l8.19,12.95l-0.28,0.3v-13.25h2.33v16.74h-2.15l-8.17-12.75l0.28-0.3v13.05h-2.33V480.36z
			"/>
		<path class="st1" d="M539.83,496.52c-0.88-0.51-1.56-1.24-2.04-2.19c-0.48-0.94-0.73-2.04-0.73-3.28v-4.6
			c0-1.24,0.24-2.34,0.73-3.28c0.48-0.94,1.17-1.68,2.04-2.19c0.88-0.52,1.9-0.78,3.06-0.78c0.96,0,1.84,0.21,2.65,0.62
			c0.81,0.41,1.48,0.99,2.02,1.75c0.54,0.75,0.91,1.62,1.1,2.62h-2.41c-0.15-0.52-0.39-0.99-0.73-1.4c-0.34-0.41-0.74-0.73-1.2-0.95
			c-0.46-0.22-0.94-0.33-1.43-0.33c-0.68,0-1.28,0.17-1.8,0.5c-0.51,0.33-0.91,0.79-1.2,1.39s-0.43,1.29-0.43,2.08v4.6
			c0,0.78,0.14,1.48,0.43,2.07c0.28,0.6,0.68,1.06,1.2,1.39c0.51,0.33,1.11,0.49,1.8,0.49c0.5,0,0.98-0.1,1.43-0.31
			c0.46-0.21,0.86-0.51,1.2-0.92c0.34-0.41,0.59-0.89,0.73-1.45h2.41c-0.19,0.99-0.56,1.86-1.11,2.61
			c-0.55,0.75-1.22,1.33-2.03,1.75c-0.81,0.41-1.69,0.62-2.64,0.62C541.73,497.29,540.71,497.03,539.83,496.52z"/>
		<path class="st1" d="M557.43,480.36h2.35v16.75h-2.35V480.36z M558.57,480.36h9.62v2.23h-9.62V480.36z M558.57,487.68h8.35v2.23
			h-8.35V487.68z M558.57,494.88h9.62v2.23h-9.62V494.88z"/>
	</g>
</g>
</svg>
